<?xml version="1.0" encoding="utf-8"?>
<!-- Generator: Adobe Illustrator 26.3.1, SVG Export Plug-In . SVG Version: 6.00 Build 0)  -->
<svg version="1.1" id="レイヤー_1" xmlns="http://www.w3.org/2000/svg" xmlns:xlink="http://www.w3.org/1999/xlink" x="0px"
	 y="0px" viewBox="0 0 566.9 566.9" style="enable-background:new 0 0 566.9 566.9;" xml:space="preserve">
<style type="text/css">
	.st0{fill:url(#SVGID_1_);}
	.st1{fill:url(#SVGID_00000044141397546502593860000015937144735513605552_);}
</style>
<g>
	<radialGradient id="SVGID_1_" cx="283.4646" cy="283.4646" r="283.4646" gradientUnits="userSpaceOnUse">
		<stop  offset="0.93" style="stop-color:#F4F3F7"/>
		<stop  offset="1" style="stop-color:#EA5E69"/>
	</radialGradient>
	<circle class="st0" cx="283.5" cy="283.5" r="283.5"/>
	
		<linearGradient id="SVGID_00000096738191122655938830000018397539536687741848_" gradientUnits="userSpaceOnUse" x1="130.8439" y1="460.0797" x2="436.0944" y2="106.8577">
		<stop  offset="0" style="stop-color:#EA5E69"/>
		<stop  offset="0.5" style="stop-color:#EB6973"/>
		<stop  offset="1" style="stop-color:#F1B2B7"/>
	</linearGradient>
	<path style="fill:url(#SVGID_00000096738191122655938830000018397539536687741848_);" d="M461.5,373.9l-59.4,62.1
		c-1.3,1.3-2.9,2.4-4.6,3.2c-1.7,0.7-3.6,1.1-5.5,1.1H110.5c-1.3,0-2.7-0.4-3.8-1.1c-1.1-0.7-2-1.7-2.5-2.9
		c-0.5-1.2-0.7-2.5-0.5-3.8c0.2-1.3,0.8-2.5,1.8-3.4l59.4-62.1c1.3-1.3,2.8-2.4,4.6-3.2c1.7-0.7,3.6-1.1,5.5-1.1h281.5
		c1.3,0,2.7,0.4,3.8,1.1c1.1,0.7,2,1.7,2.5,2.9c0.5,1.2,0.7,2.5,0.5,3.8C463,371.7,462.4,372.9,461.5,373.9z M402.1,248.9
		c-1.3-1.3-2.9-2.4-4.6-3.2c-1.7-0.7-3.6-1.1-5.5-1.1H110.5c-1.3,0-2.7,0.4-3.8,1.1c-1.1,0.7-2,1.7-2.5,2.9
		c-0.5,1.2-0.7,2.5-0.5,3.8c0.2,1.3,0.8,2.5,1.8,3.4l59.4,62.1c1.3,1.3,2.8,2.4,4.6,3.2c1.7,0.7,3.6,1.1,5.5,1.1h281.5
		c1.3,0,2.7-0.4,3.8-1.1c1.1-0.7,2-1.7,2.5-2.9c0.5-1.2,0.7-2.5,0.5-3.8c-0.2-1.3-0.8-2.5-1.8-3.4L402.1,248.9z M110.5,204.3H392
		c1.9,0,3.8-0.4,5.5-1.1c1.7-0.7,3.3-1.8,4.6-3.2l59.4-62.1c0.9-1,1.5-2.2,1.8-3.4s0.1-2.6-0.5-3.8c-0.5-1.2-1.4-2.2-2.5-2.9
		c-1.1-0.7-2.4-1.1-3.8-1.1H174.9c-1.9,0-3.8,0.4-5.5,1.1c-1.7,0.7-3.3,1.8-4.6,3.2L105.4,193c-0.9,1-1.5,2.2-1.8,3.4
		c-0.2,1.3-0.1,2.6,0.5,3.8c0.5,1.2,1.4,2.2,2.5,2.9C107.8,204,109.1,204.3,110.5,204.3z"/>
</g>
</svg>
