<svg id="svg" version="1.1" xmlns="http://www.w3.org/2000/svg" xmlns:xlink="http://www.w3.org/1999/xlink" width="400" height="400" viewBox="0, 0, 400,400"><g id="svgg"><path id="path0" d="M262.267 225.867 C 260.106 228.028,270.112 233.280,284.960 237.780 C 290.601 239.489,291.706 239.352,293.626 236.700 C 296.431 232.828,295.363 231.414,287.600 228.725 C 280.519 226.272,263.753 224.381,262.267 225.867 M238.405 230.695 C 233.649 231.583,216.995 239.135,210.800 243.212 C 201.394 249.403,198.451 252.542,182.102 273.829 C 174.291 284.000,173.562 284.469,169.400 282.000 C 165.758 279.840,164.811 280.463,159.389 288.580 C 146.409 308.013,145.003 322.183,154.962 333.200 C 156.598 335.010,160.531 338.400,160.995 338.400 C 161.132 338.400,162.337 339.142,163.672 340.049 C 173.463 346.698,189.596 350.404,203.722 349.248 C 212.595 348.522,213.793 348.324,229.400 345.004 C 239.076 342.946,252.716 338.195,262.244 333.563 C 266.251 331.615,266.119 331.768,269.473 325.200 C 275.658 313.091,282.647 307.278,294.271 304.575 C 296.760 303.996,299.361 303.135,300.052 302.661 C 302.510 300.975,306.881 290.467,308.980 281.200 C 309.354 279.550,309.910 277.120,310.217 275.800 C 311.707 269.390,311.305 256.166,309.442 250.346 C 307.223 243.413,306.287 243.663,300.837 252.644 C 297.304 258.468,296.048 259.595,293.849 258.920 C 292.473 258.497,269.773 245.176,253.800 235.418 C 246.490 230.952,242.909 229.854,238.405 230.695 M107.000 235.540 C 105.895 236.218,100.164 241.459,96.122 245.488 C 90.186 251.405,93.468 261.997,100.618 259.995 C 105.250 258.698,116.432 245.602,117.102 240.690 C 117.589 237.117,110.400 233.452,107.000 235.540 " stroke="none" fill="#fc94a3" fill-rule="evenodd"></path><path id="path1" d="M137.856 122.830 C 117.688 127.785,97.637 154.971,96.532 178.858 L 96.279 184.316 93.784 187.127 C 85.829 196.087,78.891 217.126,77.402 236.801 C 76.850 244.093,77.469 244.038,87.383 235.900 C 108.611 218.475,109.258 218.022,112.137 218.562 C 114.333 218.974,114.780 219.316,134.144 235.400 C 151.126 249.506,166.098 260.000,169.242 260.000 C 170.907 260.000,175.195 256.704,183.800 248.811 C 192.246 241.064,215.258 222.073,223.400 216.130 C 230.524 210.931,230.064 210.896,241.263 217.491 C 260.193 228.639,272.113 234.406,284.581 238.450 C 291.610 240.729,291.486 240.771,296.558 234.420 C 306.396 222.102,315.293 210.339,316.305 208.310 C 317.097 206.723,312.687 191.750,309.624 185.626 C 309.011 184.402,308.290 182.720,308.021 181.890 C 306.921 178.496,305.479 177.513,297.803 174.924 C 281.053 169.275,249.017 166.383,209.200 166.924 C 189.320 167.194,184.356 167.590,144.910 172.050 L 140.420 172.558 139.410 171.609 C 138.068 170.349,138.126 168.891,139.584 167.185 C 140.235 166.423,140.775 165.681,140.784 165.535 C 140.793 165.389,141.438 164.309,142.219 163.135 C 151.576 149.051,153.223 126.938,145.215 122.900 C 143.082 121.824,141.993 121.814,137.856 122.830 M316.682 221.900 C 316.171 222.725,313.083 228.350,309.819 234.400 C 295.023 261.830,297.108 260.087,286.443 253.943 C 282.569 251.711,276.340 248.132,272.600 245.990 C 268.860 243.847,262.290 239.987,258.000 237.412 C 238.080 225.453,232.317 224.245,223.439 230.168 C 217.253 234.296,206.820 243.653,200.746 250.523 L 197.848 253.800 200.224 251.577 C 208.617 243.723,218.037 238.175,231.738 233.016 C 241.862 229.203,243.878 229.430,253.905 235.507 C 272.731 246.916,292.506 258.507,293.849 258.920 C 296.048 259.595,297.304 258.468,300.837 252.644 C 306.287 243.663,307.223 243.413,309.442 250.346 C 311.305 256.166,311.707 269.390,310.217 275.800 C 309.910 277.120,309.354 279.550,308.980 281.200 C 306.881 290.467,302.510 300.975,300.052 302.661 C 299.361 303.135,296.760 303.996,294.271 304.575 C 282.647 307.278,275.658 313.091,269.473 325.200 C 266.119 331.768,266.251 331.615,262.244 333.563 C 252.716 338.195,239.076 342.946,229.400 345.004 C 213.793 348.324,212.595 348.522,203.722 349.248 C 189.596 350.404,173.463 346.698,163.672 340.049 C 162.337 339.142,161.132 338.400,160.995 338.400 C 160.531 338.400,156.598 335.010,154.962 333.200 C 145.003 322.183,146.409 308.013,159.389 288.580 C 164.811 280.463,165.758 279.840,169.400 282.000 C 172.424 283.794,174.782 283.449,176.646 280.939 C 177.111 280.313,178.516 278.495,179.769 276.900 C 181.021 275.305,181.961 274.000,181.858 274.000 C 181.755 274.000,180.380 275.619,178.802 277.597 C 172.532 285.460,173.775 286.017,153.029 266.037 C 134.122 247.828,116.646 234.945,109.775 234.152 C 107.167 233.851,107.393 233.676,91.736 248.137 C 77.614 261.180,78.222 260.377,79.018 264.902 C 83.887 292.594,100.850 320.842,121.305 335.319 C 160.481 363.048,216.322 365.504,262.701 341.538 L 270.403 337.558 275.039 337.180 C 286.667 336.232,298.986 328.882,303.121 320.426 C 304.714 317.166,304.685 317.454,304.329 308.600 L 304.200 305.400 306.471 301.751 C 317.938 283.327,322.715 262.525,321.280 237.263 C 320.433 222.343,319.121 217.959,316.682 221.900 M279.217 226.574 C 285.452 227.792,292.382 230.104,294.100 231.539 C 295.929 233.067,293.946 237.828,291.086 238.772 C 289.895 239.165,289.112 239.038,284.960 237.780 C 270.112 233.280,260.106 228.028,262.267 225.867 C 262.988 225.145,274.325 225.618,279.217 226.574 M112.164 235.450 C 117.485 237.263,118.240 240.015,114.904 245.438 C 108.816 255.335,101.239 261.595,97.498 259.820 C 91.870 257.149,91.219 250.374,96.122 245.488 C 106.785 234.860,108.071 234.055,112.164 235.450 " stroke="none" fill="#fac0cb" fill-rule="evenodd"></path><path id="path2" d="M178.800 3.588 C 178.470 3.775,176.940 4.112,175.400 4.338 C 173.860 4.563,171.700 4.940,170.600 5.175 C 169.500 5.411,167.909 5.718,167.065 5.859 C 166.221 6.000,165.447 6.332,165.345 6.598 C 165.243 6.864,164.740 7.001,164.227 6.903 C 163.714 6.805,163.172 6.922,163.023 7.162 C 162.875 7.403,162.303 7.600,161.753 7.600 C 161.203 7.600,160.836 7.735,160.937 7.900 C 161.039 8.065,160.606 8.237,159.974 8.283 C 159.343 8.328,158.290 8.643,157.633 8.983 C 156.977 9.322,156.176 9.600,155.853 9.600 C 155.530 9.600,154.079 10.230,152.627 11.000 C 151.176 11.770,149.644 12.400,149.223 12.400 C 148.802 12.400,148.130 12.805,147.729 13.300 C 147.328 13.795,146.820 14.202,146.600 14.205 C 143.664 14.246,135.394 20.812,135.695 22.863 C 135.783 23.465,135.713 23.870,135.539 23.763 C 135.366 23.655,135.107 24.033,134.964 24.602 C 134.618 25.979,134.979 30.126,135.458 30.286 C 135.667 30.356,135.765 31.039,135.675 31.805 C 135.492 33.375,135.874 35.326,136.312 35.053 C 136.470 34.954,136.540 36.236,136.466 37.900 C 136.393 39.564,136.515 41.303,136.737 41.763 C 137.179 42.675,137.820 45.564,138.211 48.400 C 138.347 49.390,138.562 50.560,138.688 51.000 L 138.918 51.800 139.227 51.000 C 139.397 50.560,139.437 51.133,139.315 52.274 C 139.050 54.765,139.462 56.292,140.050 55.000 C 140.294 54.463,140.353 55.069,140.228 56.841 C 140.125 58.293,140.196 59.643,140.386 59.841 C 141.175 60.662,141.016 64.058,140.203 63.746 C 139.863 63.615,139.501 63.792,139.361 64.156 C 139.227 64.508,138.977 64.710,138.808 64.605 C 138.407 64.357,133.826 66.646,133.190 67.412 C 132.922 67.735,132.475 68.000,132.198 68.000 C 131.920 68.000,131.074 68.686,130.317 69.523 C 129.560 70.361,128.761 70.987,128.541 70.914 C 128.321 70.840,127.812 71.145,127.409 71.590 C 127.006 72.036,126.448 72.400,126.169 72.400 C 125.890 72.400,125.153 72.823,124.531 73.340 C 123.909 73.858,123.188 74.353,122.928 74.440 C 122.668 74.528,121.469 75.545,120.262 76.700 C 119.055 77.855,117.900 78.800,117.696 78.800 C 117.491 78.800,116.981 79.186,116.562 79.659 C 116.143 80.131,115.114 81.019,114.275 81.633 C 109.092 85.426,83.656 111.936,87.300 109.747 C 87.663 109.529,87.655 109.626,87.271 110.099 C 86.980 110.459,86.487 110.655,86.176 110.536 C 85.831 110.403,85.469 110.684,85.246 111.259 C 85.045 111.777,84.322 112.729,83.640 113.375 C 82.958 114.021,82.400 114.758,82.400 115.013 C 82.400 115.268,82.040 115.802,81.600 116.200 C 81.160 116.598,80.798 117.121,80.796 117.362 C 80.794 117.603,79.939 118.833,78.896 120.094 C 75.791 123.852,75.094 124.827,75.340 125.073 C 75.468 125.201,75.123 125.660,74.572 126.093 C 73.872 126.644,73.635 127.138,73.782 127.740 C 73.898 128.213,73.887 128.368,73.758 128.084 C 73.436 127.377,69.939 132.426,70.223 133.188 C 70.344 133.511,70.323 133.656,70.177 133.510 C 69.814 133.147,67.886 135.491,68.169 135.950 C 68.294 136.151,68.108 136.427,67.756 136.561 C 67.380 136.706,67.215 137.061,67.354 137.424 C 67.489 137.777,67.422 137.937,67.195 137.797 C 66.978 137.663,66.800 137.934,66.800 138.400 C 66.800 138.875,66.620 139.136,66.392 138.995 C 66.167 138.856,65.720 139.373,65.398 140.144 C 65.076 140.915,64.641 141.651,64.431 141.781 C 63.796 142.173,62.796 144.469,63.068 144.910 C 63.209 145.138,63.135 145.207,62.904 145.064 C 62.392 144.748,61.894 145.891,62.263 146.536 C 62.409 146.791,62.382 146.868,62.204 146.706 C 62.025 146.544,61.636 146.880,61.339 147.452 C 60.680 148.723,60.665 148.930,61.262 148.562 C 61.557 148.379,61.615 148.453,61.422 148.765 C 61.256 149.033,61.024 149.157,60.907 149.040 C 60.439 148.572,59.248 150.702,59.456 151.637 C 59.625 152.399,59.580 152.475,59.241 152.000 C 58.866 151.475,58.811 151.481,58.806 152.051 C 58.803 152.409,58.527 152.929,58.193 153.206 C 57.539 153.749,57.373 154.093,54.726 160.400 C 54.495 160.950,54.148 161.713,53.953 162.095 C 53.475 163.034,53.509 163.303,54.062 162.962 C 54.350 162.784,54.415 162.852,54.234 163.145 C 54.075 163.402,53.796 163.521,53.614 163.409 C 53.224 163.168,52.707 164.327,52.996 164.794 C 53.106 164.971,52.908 165.227,52.556 165.361 C 52.180 165.506,52.015 165.861,52.154 166.224 C 52.284 166.564,52.221 166.737,52.014 166.609 C 51.807 166.481,51.431 167.146,51.180 168.088 C 50.928 169.030,50.544 170.017,50.326 170.282 C 50.109 170.548,50.036 170.934,50.163 171.141 C 50.291 171.347,50.106 171.627,49.752 171.763 C 49.314 171.931,49.170 172.333,49.301 173.019 C 49.408 173.574,49.399 173.932,49.282 173.815 C 48.939 173.472,46.376 178.923,46.468 179.800 C 46.514 180.240,46.142 181.387,45.642 182.350 C 45.142 183.312,44.821 184.438,44.929 184.850 C 45.037 185.263,44.989 185.516,44.821 185.413 C 44.445 185.180,43.600 186.967,43.600 187.995 C 43.600 188.412,43.420 188.864,43.200 189.000 C 42.980 189.136,42.800 189.599,42.800 190.029 C 42.800 190.459,42.628 191.123,42.418 191.505 C 41.742 192.734,40.000 198.892,40.000 200.052 C 40.000 200.670,39.622 201.848,39.161 202.670 C 38.588 203.689,38.389 204.575,38.532 205.458 C 38.647 206.170,38.578 206.808,38.378 206.876 C 38.178 206.944,37.966 207.657,37.907 208.461 C 37.848 209.265,37.678 209.847,37.529 209.755 C 37.169 209.534,36.922 210.497,36.594 213.400 C 36.445 214.720,36.139 216.024,35.914 216.298 C 35.689 216.572,35.597 217.145,35.709 217.572 C 35.831 218.040,35.674 218.440,35.312 218.578 C 34.834 218.762,34.744 219.413,34.864 221.802 C 34.956 223.614,34.855 224.849,34.608 224.931 C 34.383 225.006,34.218 225.952,34.241 227.033 C 34.263 228.115,34.163 228.664,34.019 228.253 C 33.875 227.842,33.554 229.879,33.307 232.778 C 33.059 235.677,32.673 238.271,32.448 238.542 C 31.981 239.105,31.964 263.930,32.430 264.219 C 32.587 264.316,32.951 266.576,33.237 269.242 C 33.578 272.407,33.869 273.830,34.078 273.344 C 34.280 272.874,34.314 273.075,34.169 273.891 C 33.894 275.446,34.327 277.166,34.801 276.399 C 34.973 276.120,35.021 276.718,34.907 277.727 C 34.672 279.809,35.036 281.313,35.566 280.455 C 35.805 280.068,35.946 280.149,36.107 280.767 C 36.227 281.226,36.162 281.500,35.963 281.377 C 35.492 281.086,35.489 283.322,35.959 283.820 C 36.298 284.178,37.801 289.011,38.255 291.200 C 38.369 291.750,38.795 292.920,39.202 293.800 C 39.609 294.680,40.150 296.077,40.403 296.904 C 40.678 297.798,41.039 298.300,41.294 298.142 C 41.532 297.995,41.609 298.062,41.467 298.292 C 41.130 298.837,41.763 300.742,43.440 304.230 C 44.188 305.786,44.800 307.356,44.800 307.718 C 44.800 308.080,45.336 308.773,45.992 309.257 C 46.813 309.864,47.064 310.282,46.799 310.601 C 46.428 311.048,49.201 317.306,49.984 317.790 C 50.164 317.902,51.085 319.570,52.030 321.496 C 53.837 325.184,55.332 327.335,55.777 326.890 C 55.923 326.744,55.937 326.899,55.808 327.234 C 55.680 327.569,56.022 328.464,56.570 329.222 C 57.117 329.980,57.815 331.140,58.121 331.800 C 58.426 332.460,58.974 333.247,59.338 333.549 C 59.702 333.851,60.000 334.279,60.000 334.500 C 60.000 334.926,61.666 337.038,64.013 339.586 C 64.791 340.430,65.374 341.277,65.311 341.468 C 65.247 341.659,65.753 342.427,66.434 343.173 C 67.116 343.920,67.797 344.864,67.948 345.272 C 68.331 346.308,83.642 361.653,84.130 361.490 C 84.348 361.417,85.894 362.671,87.564 364.275 C 89.234 365.880,90.758 367.195,90.952 367.196 C 91.145 367.198,91.990 367.785,92.830 368.500 C 95.390 370.678,96.830 371.704,97.038 371.496 C 97.147 371.387,97.754 371.816,98.387 372.449 C 99.020 373.082,99.794 373.600,100.107 373.600 C 100.420 373.600,101.002 373.960,101.400 374.400 C 101.798 374.840,102.344 375.200,102.613 375.200 C 102.882 375.200,103.329 375.473,103.606 375.807 C 103.883 376.141,104.760 376.712,105.555 377.074 C 106.350 377.437,107.308 377.996,107.685 378.316 C 108.062 378.635,108.656 378.787,109.006 378.653 C 109.363 378.516,109.538 378.577,109.405 378.792 C 109.110 379.269,111.929 380.491,112.504 380.136 C 112.735 379.993,112.810 380.060,112.672 380.284 C 112.335 380.829,117.392 383.376,118.030 382.982 C 118.317 382.804,118.422 382.841,118.280 383.071 C 118.146 383.288,118.913 383.849,119.984 384.316 C 121.056 384.784,122.048 385.355,122.190 385.584 C 122.331 385.813,122.881 386.000,123.411 386.000 C 123.942 386.000,124.966 386.324,125.688 386.720 C 126.410 387.116,128.134 387.778,129.519 388.189 C 130.905 388.601,132.125 389.078,132.231 389.249 C 132.336 389.420,133.093 389.479,133.911 389.380 C 134.943 389.256,135.219 389.317,134.811 389.579 C 134.060 390.062,135.274 390.648,136.043 390.174 C 136.343 389.988,136.419 390.045,136.245 390.326 C 135.909 390.871,137.734 391.412,138.439 390.976 C 138.726 390.799,138.820 390.844,138.670 391.087 C 138.522 391.325,138.992 391.591,139.788 391.720 C 140.542 391.843,141.799 392.247,142.581 392.618 C 143.363 392.989,144.356 393.200,144.788 393.087 C 145.252 392.966,145.537 393.069,145.486 393.341 C 145.433 393.624,146.013 393.800,147.000 393.800 C 147.884 393.800,148.793 394.047,149.032 394.352 C 149.309 394.704,149.984 394.843,150.904 394.735 C 151.696 394.643,152.268 394.691,152.174 394.842 C 151.922 395.249,152.864 395.522,155.582 395.830 C 156.922 395.981,158.114 396.262,158.233 396.453 C 158.529 396.933,160.151 396.889,160.652 396.388 C 160.925 396.115,161.391 396.106,162.032 396.362 C 162.766 396.656,162.825 396.755,162.276 396.775 C 161.846 396.790,161.665 396.982,161.831 397.250 C 162.013 397.545,163.054 397.632,164.854 397.503 C 166.364 397.395,167.600 397.443,167.600 397.609 C 167.600 398.093,170.414 398.485,170.930 398.073 C 171.189 397.867,171.759 397.843,172.200 398.021 L 173.000 398.344 172.200 398.397 L 171.400 398.451 172.200 398.769 C 177.103 400.718,223.200 399.691,223.200 397.633 C 223.200 397.461,224.547 397.407,226.193 397.512 C 228.660 397.671,229.227 397.594,229.426 397.077 C 229.561 396.724,229.926 396.550,230.260 396.678 C 230.587 396.804,231.247 396.724,231.727 396.502 C 232.207 396.279,233.770 395.899,235.200 395.657 C 236.630 395.416,238.610 395.023,239.600 394.784 C 240.590 394.546,241.909 394.249,242.532 394.125 C 243.154 394.001,243.746 393.685,243.847 393.421 C 243.955 393.140,244.519 393.015,245.219 393.117 C 245.873 393.213,246.631 393.109,246.904 392.885 C 247.177 392.661,248.170 392.272,249.112 392.020 C 250.054 391.769,250.746 391.436,250.650 391.281 C 250.555 391.127,250.954 390.968,251.538 390.929 C 253.550 390.795,255.264 390.299,255.458 389.794 C 255.564 389.516,256.001 389.380,256.428 389.491 C 256.855 389.603,257.428 389.511,257.702 389.286 C 257.976 389.062,258.970 388.672,259.912 388.420 C 260.854 388.169,261.528 387.808,261.412 387.619 C 261.295 387.429,261.515 387.357,261.901 387.458 C 262.839 387.704,265.699 386.483,265.383 385.972 C 265.225 385.717,265.515 385.664,266.172 385.829 C 266.743 385.972,267.433 385.907,267.705 385.684 C 267.977 385.461,268.970 385.072,269.912 384.820 C 270.854 384.569,271.519 384.193,271.391 383.986 C 271.263 383.779,271.436 383.716,271.776 383.846 C 272.134 383.983,272.493 383.824,272.630 383.467 C 272.762 383.122,273.128 382.951,273.460 383.078 C 273.787 383.204,274.447 383.121,274.927 382.894 C 276.832 381.994,278.734 381.200,278.985 381.200 C 279.647 381.200,283.600 379.099,283.600 378.747 C 283.600 378.530,283.757 378.450,283.948 378.568 C 284.140 378.687,285.175 378.338,286.248 377.793 C 287.322 377.249,288.390 376.803,288.621 376.802 C 289.102 376.800,292.409 375.127,294.200 373.980 C 294.860 373.557,296.300 372.750,297.400 372.186 C 298.500 371.622,299.965 370.765,300.656 370.280 C 302.124 369.252,304.052 368.072,305.804 367.133 C 306.488 366.766,307.284 366.181,307.573 365.833 C 307.862 365.485,308.279 365.200,308.500 365.200 C 309.104 365.200,311.970 362.504,311.678 362.211 C 311.538 362.072,311.696 362.062,312.027 362.189 C 312.390 362.328,313.093 361.938,313.790 361.210 C 314.428 360.545,315.115 360.000,315.317 360.000 C 315.519 360.000,317.034 358.740,318.683 357.200 C 320.332 355.660,321.857 354.400,322.072 354.400 C 322.552 354.400,329.550 347.387,330.455 346.000 C 330.814 345.450,332.344 343.604,333.854 341.897 C 338.295 336.878,339.325 335.592,339.090 335.357 C 338.969 335.235,339.573 334.499,340.434 333.721 C 341.296 332.943,342.000 332.086,342.000 331.815 C 342.000 331.545,342.360 330.998,342.800 330.600 C 343.240 330.202,343.600 329.648,343.600 329.369 C 343.600 329.090,344.005 328.352,344.500 327.729 C 345.455 326.528,346.400 324.962,346.400 324.582 C 346.400 324.456,346.175 324.472,345.900 324.617 C 345.625 324.762,345.996 324.391,346.724 323.793 C 347.511 323.146,347.959 322.471,347.829 322.131 C 347.707 321.813,347.785 321.667,348.005 321.803 C 348.222 321.937,348.400 321.857,348.400 321.624 C 348.400 321.391,348.715 320.883,349.100 320.495 C 350.060 319.527,350.867 317.633,350.543 317.108 C 350.394 316.867,350.461 316.791,350.696 316.936 C 351.200 317.247,351.713 316.106,351.339 315.502 C 351.194 315.266,351.264 315.192,351.497 315.336 C 351.741 315.487,352.440 314.514,353.159 313.023 C 354.519 310.204,354.629 309.811,353.938 310.238 C 353.650 310.416,353.585 310.348,353.766 310.055 C 353.925 309.798,354.204 309.679,354.386 309.791 C 354.823 310.062,355.276 308.846,354.939 308.302 C 354.795 308.068,354.859 307.989,355.081 308.127 C 355.625 308.463,357.376 305.008,356.983 304.373 C 356.790 304.060,356.841 303.978,357.120 304.150 C 357.546 304.414,358.624 301.629,358.531 300.504 C 358.509 300.232,358.624 300.091,358.787 300.192 C 359.157 300.421,360.000 298.623,360.000 297.605 C 360.000 297.188,360.192 296.728,360.427 296.583 C 360.662 296.438,360.762 296.079,360.650 295.785 C 360.537 295.492,360.649 295.184,360.898 295.101 C 361.147 295.018,361.571 294.061,361.841 292.975 C 362.864 288.855,363.688 286.183,364.084 285.702 C 364.310 285.428,364.397 284.833,364.279 284.380 C 364.160 283.926,364.303 283.070,364.597 282.477 C 365.305 281.050,366.110 276.501,365.756 275.929 C 365.598 275.673,365.654 275.586,365.885 275.729 C 366.141 275.887,366.371 274.976,366.502 273.291 C 366.616 271.811,366.929 270.060,367.197 269.400 C 367.704 268.156,368.059 229.684,367.568 229.380 C 367.334 229.235,366.580 225.169,366.237 222.200 C 365.951 219.728,365.152 215.909,364.688 214.800 C 364.458 214.250,364.311 213.398,364.362 212.907 C 364.414 212.415,364.309 211.785,364.130 211.507 C 363.837 211.051,363.446 209.666,361.877 203.533 C 361.614 202.506,361.265 201.531,361.100 201.366 C 360.935 201.202,360.800 200.657,360.800 200.157 C 360.800 199.657,360.644 199.151,360.454 199.033 C 360.264 198.916,360.012 198.106,359.895 197.234 C 359.778 196.362,359.409 195.099,359.074 194.428 C 358.739 193.757,358.344 192.654,358.195 191.977 C 358.046 191.300,357.683 190.653,357.388 190.540 C 357.092 190.427,356.953 190.067,357.078 189.740 C 357.284 189.205,357.023 188.407,355.953 186.305 C 355.759 185.923,355.600 185.328,355.600 184.982 C 355.600 184.608,355.412 184.469,355.138 184.638 C 354.884 184.795,354.784 184.750,354.915 184.538 C 355.282 183.943,354.354 180.757,353.745 180.523 C 353.448 180.409,353.297 180.167,353.410 179.984 C 353.523 179.801,353.252 179.005,352.808 178.214 C 352.363 177.423,352.000 176.421,352.000 175.988 C 352.000 175.555,351.674 174.874,351.275 174.475 C 350.876 174.076,350.621 173.536,350.708 173.275 C 350.795 173.014,350.583 172.691,350.236 172.558 C 349.889 172.425,349.693 172.174,349.800 172.000 C 349.908 171.826,349.728 171.170,349.400 170.542 C 349.073 169.914,348.804 169.206,348.802 168.968 C 348.799 168.356,347.010 164.895,346.276 164.081 C 345.938 163.706,345.531 162.860,345.370 162.200 C 345.014 160.736,343.823 159.122,343.389 159.514 C 343.214 159.671,343.191 159.591,343.337 159.336 C 343.671 158.753,343.230 157.534,342.786 157.809 C 342.604 157.921,342.325 157.802,342.166 157.545 C 341.975 157.235,342.051 157.184,342.390 157.394 C 342.990 157.765,343.034 157.882,341.095 153.918 C 340.267 152.226,339.417 150.734,339.205 150.603 C 338.994 150.473,338.511 149.699,338.131 148.883 C 337.203 146.887,335.943 145.188,335.564 145.422 C 335.394 145.527,335.125 145.402,334.966 145.145 C 334.785 144.852,334.850 144.784,335.138 144.962 C 336.340 145.705,334.793 142.367,333.444 141.306 C 332.944 140.913,332.600 140.401,332.678 140.167 C 332.756 139.933,332.455 139.412,332.010 139.009 C 331.564 138.606,331.200 138.105,331.200 137.896 C 331.200 137.687,330.750 136.981,330.200 136.327 C 329.650 135.673,329.200 134.910,329.200 134.631 C 329.200 134.352,328.840 133.798,328.400 133.400 C 327.960 133.002,327.600 132.465,327.600 132.208 C 327.600 131.950,327.150 131.317,326.600 130.800 C 326.050 130.283,325.600 129.656,325.600 129.405 C 325.600 129.155,325.060 128.432,324.400 127.800 C 323.740 127.168,323.200 126.439,323.200 126.181 C 323.200 125.923,322.572 125.102,321.804 124.356 C 321.037 123.610,320.407 122.767,320.404 122.483 C 320.402 122.198,319.590 121.100,318.600 120.041 C 317.610 118.983,316.800 117.988,316.800 117.829 C 316.800 117.305,311.810 112.008,311.313 112.004 C 311.044 112.002,310.917 111.760,311.030 111.466 C 311.299 110.765,288.427 87.904,287.726 88.173 C 287.442 88.282,287.252 88.212,287.305 88.018 C 287.357 87.823,286.440 86.840,285.267 85.832 C 283.083 83.956,282.524 83.619,283.053 84.500 C 283.252 84.831,283.121 84.812,282.667 84.443 C 282.290 84.137,282.056 83.811,282.148 83.719 C 282.451 83.416,278.443 79.919,277.972 80.076 C 277.718 80.161,276.907 79.683,276.171 79.015 C 273.031 76.167,271.115 74.654,269.704 73.910 C 268.877 73.473,267.840 72.809,267.400 72.434 C 266.960 72.059,266.105 71.542,265.500 71.285 C 264.895 71.028,264.400 70.633,264.400 70.409 C 264.400 70.184,264.144 70.000,263.831 70.000 C 263.518 70.000,262.752 69.595,262.129 69.100 C 260.137 67.517,258.465 66.735,259.032 67.652 C 259.192 67.911,259.104 68.035,258.826 67.942 C 258.559 67.853,258.399 67.668,258.470 67.532 C 258.706 67.081,257.090 65.600,256.362 65.600 C 255.969 65.600,255.543 65.431,255.416 65.225 C 255.054 64.640,252.743 63.588,252.351 63.830 C 252.158 63.949,252.000 63.855,252.000 63.621 C 252.000 63.386,250.888 62.655,249.529 61.997 C 246.796 60.673,246.645 60.625,246.997 61.195 C 247.136 61.420,246.979 61.490,246.633 61.357 C 246.299 61.229,246.065 60.916,246.113 60.662 C 246.161 60.408,245.930 60.200,245.600 60.200 C 245.270 60.200,244.802 59.948,244.561 59.639 C 244.291 59.295,243.904 59.204,243.561 59.403 C 243.252 59.582,243.134 59.581,243.297 59.400 C 243.461 59.219,243.248 58.829,242.825 58.532 C 241.854 57.852,241.409 50.556,242.317 50.209 C 242.724 50.054,242.796 48.443,242.656 42.706 C 242.553 38.501,242.600 36.588,242.768 38.200 L 243.059 41.000 243.129 38.800 C 243.167 37.590,243.406 34.684,243.660 32.341 C 244.108 28.209,243.577 22.000,242.776 22.000 C 242.630 22.000,242.599 21.538,242.707 20.974 C 242.848 20.235,242.665 19.781,242.052 19.351 C 241.583 19.023,241.200 18.487,241.200 18.160 C 241.200 16.550,234.890 11.600,232.837 11.600 C 232.651 11.600,232.274 11.330,232.000 11.000 C 231.726 10.670,231.162 10.400,230.747 10.400 C 230.331 10.400,229.184 10.020,228.197 9.557 C 227.210 9.093,226.123 8.821,225.781 8.952 C 225.438 9.083,225.255 9.035,225.372 8.845 C 225.489 8.655,224.914 8.389,224.093 8.254 C 223.272 8.118,222.084 7.736,221.454 7.404 C 220.166 6.725,217.008 6.566,217.400 7.200 C 217.713 7.706,217.183 7.706,216.400 7.200 C 215.964 6.918,215.943 6.811,216.324 6.806 C 216.612 6.803,216.726 6.603,216.577 6.362 C 216.428 6.122,215.623 5.990,214.787 6.070 C 213.951 6.150,213.350 6.082,213.450 5.919 C 213.735 5.458,211.801 5.103,209.848 5.259 C 208.873 5.337,208.148 5.284,208.236 5.142 C 208.499 4.716,207.294 4.414,204.266 4.145 C 202.690 4.005,201.172 3.711,200.893 3.490 C 200.381 3.087,187.390 3.410,185.850 3.864 C 185.364 4.008,185.196 3.930,185.374 3.643 C 185.705 3.107,179.735 3.057,178.800 3.588 M200.097 20.612 C 214.471 23.089,221.999 25.843,223.900 29.321 C 224.789 30.946,224.933 58.171,224.073 62.000 C 222.784 67.738,220.007 72.883,215.976 77.000 C 213.107 79.930,213.212 80.642,216.461 80.284 C 220.138 79.879,222.548 78.893,226.032 76.369 C 231.009 72.763,234.397 73.775,250.224 83.601 C 330.002 133.126,370.075 232.019,338.606 301.712 C 308.454 368.487,209.990 401.219,132.200 370.326 C 73.045 346.834,40.489 283.375,53.848 217.600 C 65.020 162.590,106.470 102.760,149.756 79.162 C 153.580 77.077,155.038 77.084,158.156 79.202 C 161.945 81.776,168.800 83.439,168.800 81.783 C 168.800 81.444,167.435 79.605,165.766 77.697 C 160.433 71.596,158.678 67.833,157.418 59.800 C 156.340 52.919,154.411 41.381,153.807 38.200 C 153.008 33.989,153.040 32.954,154.018 31.370 C 156.509 27.340,172.766 21.248,184.800 19.835 C 187.466 19.522,196.409 19.976,200.097 20.612 M271.838 76.062 L 272.600 76.924 271.500 76.216 C 270.366 75.486,270.151 75.200,270.738 75.200 C 270.924 75.200,271.419 75.588,271.838 76.062 M368.151 249.200 C 368.151 251.730,368.216 252.765,368.296 251.500 C 368.375 250.235,368.375 248.165,368.296 246.900 C 368.216 245.635,368.151 246.670,368.151 249.200 " stroke="none" fill="#074735" fill-rule="evenodd"></path><path id="path3" d="M227.600 78.069 C 223.030 81.463,213.860 84.078,210.705 82.887 C 209.853 82.565,209.262 82.553,208.717 82.845 C 201.399 86.761,180.706 87.850,174.484 84.646 C 173.559 84.169,173.325 84.169,172.884 84.644 C 171.394 86.251,161.970 84.240,157.292 81.317 C 154.075 79.307,153.389 79.477,145.518 84.249 C 107.363 107.382,70.378 160.374,58.007 209.631 C 39.888 281.778,74.985 349.395,142.000 371.452 C 203.118 391.567,278.963 373.233,318.443 328.800 C 350.885 292.289,356.328 236.471,332.721 182.400 C 313.998 139.517,276.923 99.065,238.437 79.528 C 231.206 75.857,230.675 75.786,227.600 78.069 M146.200 119.946 C 156.813 124.780,155.871 147.097,144.248 166.176 C 141.689 170.377,140.184 170.285,164.200 167.396 C 168.820 166.841,175.750 166.122,179.600 165.800 C 183.450 165.478,188.580 165.044,191.000 164.836 C 202.967 163.806,228.806 163.984,245.600 165.212 C 248.570 165.430,254.150 165.785,258.000 166.002 C 266.152 166.462,278.953 168.002,284.400 169.178 C 292.465 170.919,293.559 171.210,298.800 173.005 C 306.858 175.764,308.962 177.280,309.964 181.045 C 310.204 181.950,311.012 184.020,311.759 185.645 C 312.506 187.270,314.035 191.446,315.157 194.925 C 317.936 203.535,317.937 203.537,319.891 202.000 C 322.621 199.852,326.540 204.323,334.943 219.171 C 341.899 231.461,340.566 232.076,330.042 221.433 C 323.192 214.504,322.899 214.301,321.600 215.600 C 320.641 216.559,320.637 216.678,321.402 220.665 C 326.933 249.488,322.060 279.641,308.152 302.658 L 305.942 306.315 306.771 309.000 C 311.090 322.984,293.845 339.711,275.000 339.818 L 269.800 339.848 262.800 343.496 C 219.313 366.160,167.168 365.247,126.793 341.114 C 103.044 326.919,83.127 297.170,77.602 267.640 C 76.852 263.634,76.590 263.612,72.554 267.217 C 67.033 272.148,66.080 271.615,64.761 262.853 C 61.592 241.813,61.164 225.313,63.881 228.900 C 64.395 229.579,66.093 235.569,67.424 241.400 C 69.106 248.773,69.756 249.305,73.165 246.100 L 75.185 244.200 75.598 237.600 C 76.843 217.707,83.452 196.421,91.422 186.636 C 93.175 184.484,93.200 184.412,93.200 181.443 C 93.200 161.459,107.126 136.813,124.929 125.290 C 132.615 120.315,141.893 117.985,146.200 119.946 " stroke="none" fill="#75bb97" fill-rule="evenodd"></path><path id="path4" d="M180.200 21.766 C 166.320 24.295,154.400 29.993,154.400 34.099 C 154.400 35.837,159.147 63.318,159.921 66.064 C 161.303 70.962,170.414 82.453,174.761 84.779 C 181.572 88.424,206.501 86.131,210.000 81.538 C 210.550 80.816,212.536 78.746,214.413 76.939 C 218.260 73.236,220.540 69.649,222.184 64.711 C 224.234 58.553,224.504 31.947,222.543 29.303 C 218.447 23.780,193.509 19.341,180.200 21.766 " stroke="none" fill="#dc9746" fill-rule="evenodd"></path><path id="path5" d="M138.400 121.142 C 125.669 124.170,113.316 134.568,104.117 150.000 C 98.076 160.134,94.098 174.310,94.980 182.554 C 95.470 187.123,96.233 185.324,96.530 178.903 C 97.524 157.406,114.011 132.613,132.637 124.607 C 140.649 121.162,145.234 121.385,147.895 125.347 C 152.822 132.684,150.009 151.409,142.219 163.135 C 141.438 164.309,140.793 165.389,140.784 165.535 C 140.775 165.681,140.235 166.423,139.584 167.185 C 138.496 168.457,138.035 170.302,138.651 170.917 C 138.789 171.055,140.161 169.240,141.701 166.884 C 156.935 143.570,155.031 117.188,138.400 121.142 M319.994 204.267 C 319.296 204.854,318.265 206.069,317.702 206.967 C 316.322 209.168,306.477 222.696,302.104 228.400 C 300.164 230.930,298.147 233.720,297.621 234.600 C 295.005 238.982,292.444 241.196,289.989 241.199 C 285.898 241.203,266.226 233.619,259.200 229.329 C 257.770 228.456,254.620 226.694,252.200 225.414 C 249.780 224.134,246.810 222.543,245.600 221.878 C 244.390 221.213,243.495 220.778,243.610 220.912 C 243.940 221.291,246.810 223.200,247.052 223.200 C 247.445 223.200,252.000 226.912,252.000 227.232 C 252.000 227.405,252.384 227.668,252.853 227.817 C 253.468 228.012,253.564 228.175,253.198 228.401 C 252.812 228.640,252.895 228.935,253.545 229.633 C 254.015 230.138,254.379 230.742,254.353 230.976 C 254.208 232.270,254.386 232.509,255.077 231.949 C 255.537 231.576,255.657 231.560,255.453 231.900 C 255.274 232.198,255.365 232.402,255.676 232.406 C 256.100 232.411,256.098 232.477,255.666 232.751 C 255.264 233.006,255.347 233.145,256.006 233.318 C 256.566 233.464,256.772 233.722,256.578 234.035 C 256.385 234.347,256.443 234.421,256.738 234.238 C 256.992 234.081,257.200 234.154,257.200 234.400 C 257.200 234.646,257.380 234.736,257.600 234.600 C 257.820 234.464,258.006 234.588,258.014 234.876 C 258.030 235.437,259.315 236.239,280.163 248.696 C 287.623 253.153,294.117 256.800,294.594 256.800 C 295.912 256.800,297.337 254.920,300.807 248.600 C 301.531 247.280,302.761 245.300,303.539 244.200 C 304.825 242.383,317.442 220.018,319.336 216.200 C 321.659 211.514,322.443 211.633,328.584 217.600 C 335.109 223.941,335.800 223.902,332.121 217.400 C 328.053 210.213,322.903 203.200,321.693 203.200 C 321.455 203.200,320.691 203.680,319.994 204.267 M109.400 219.610 C 108.740 219.810,106.698 221.194,104.862 222.686 C 103.027 224.179,99.677 226.840,97.419 228.600 C 85.669 237.757,77.526 244.327,75.191 246.534 C 70.164 251.285,68.018 251.078,66.755 245.720 C 65.910 242.137,65.133 240.266,64.735 240.857 C 64.298 241.505,64.677 252.914,65.231 255.800 C 65.442 256.900,65.870 259.750,66.183 262.133 C 67.121 269.285,67.497 269.490,72.187 265.400 C 74.079 263.750,75.776 262.400,75.957 262.400 C 76.138 262.400,82.296 256.436,89.643 249.146 C 96.989 241.857,103.962 235.162,105.138 234.269 C 108.992 231.344,112.154 232.186,121.722 238.685 C 135.453 248.012,141.989 253.440,157.875 268.715 C 165.940 276.469,169.431 279.469,168.958 278.235 C 168.824 277.886,168.554 277.600,168.357 277.600 C 168.161 277.600,168.000 277.340,168.000 277.022 C 168.000 276.704,166.965 275.608,165.700 274.585 C 164.435 273.563,162.982 272.203,162.471 271.563 C 161.960 270.924,161.274 270.400,160.947 270.400 C 160.620 270.400,160.430 270.265,160.524 270.100 C 160.749 269.705,158.952 267.981,158.641 268.293 C 158.508 268.425,158.400 268.335,158.400 268.092 C 158.400 267.849,156.847 266.064,154.949 264.125 C 150.183 259.256,148.856 257.487,149.082 256.307 C 149.281 255.264,148.000 252.600,147.299 252.600 C 147.061 252.600,146.732 252.465,146.567 252.300 C 146.402 252.135,146.477 252.000,146.733 252.000 C 146.990 252.000,147.200 251.730,147.200 251.400 C 147.200 251.070,147.020 250.800,146.800 250.800 C 146.580 250.800,146.400 250.609,146.400 250.376 C 146.400 250.143,146.608 250.081,146.862 250.238 C 147.141 250.411,147.215 250.348,147.049 250.079 C 146.898 249.835,146.510 249.736,146.187 249.860 C 145.790 250.013,145.600 249.823,145.600 249.273 C 145.600 248.364,147.363 248.951,148.407 250.208 C 148.677 250.534,149.133 250.800,149.420 250.800 C 149.708 250.800,150.195 251.052,150.503 251.361 C 150.812 251.669,151.983 252.402,153.107 252.989 C 154.231 253.577,155.363 254.315,155.624 254.629 C 155.885 254.943,156.273 255.200,156.487 255.200 C 156.701 255.200,157.399 255.572,158.038 256.027 C 158.677 256.482,159.200 256.758,159.200 256.639 C 159.200 256.521,157.882 255.535,156.270 254.447 C 150.075 250.267,140.453 242.457,122.013 226.644 C 113.691 219.508,112.301 218.733,109.400 219.610 M304.254 309.800 C 304.996 314.471,304.708 317.180,303.121 320.426 C 299.094 328.661,286.243 336.468,275.675 337.098 C 272.492 337.288,271.993 337.406,272.572 337.829 C 276.636 340.801,291.837 335.080,299.501 327.695 C 305.739 321.684,308.159 312.975,304.752 308.800 L 303.935 307.800 304.254 309.800 " stroke="none" fill="#aaf3e1" fill-rule="evenodd"></path><path id="path6" d="M136.094 120.220 C 113.851 126.797,93.200 156.273,93.200 181.443 C 93.200 184.412,93.175 184.484,91.422 186.636 C 83.469 196.399,76.897 217.534,75.578 237.583 C 75.340 241.203,75.057 244.308,74.949 244.483 C 74.841 244.657,75.258 244.794,75.876 244.787 C 76.714 244.777,78.983 243.196,84.800 238.566 C 89.090 235.151,94.670 230.745,97.200 228.775 C 99.730 226.805,103.238 224.020,104.995 222.586 C 111.438 217.330,110.817 217.088,127.609 231.400 C 140.669 242.531,142.107 243.725,147.600 248.002 C 157.856 255.988,166.767 261.602,169.179 261.598 C 171.517 261.593,174.838 259.225,183.157 251.630 C 193.533 242.157,215.791 223.743,225.107 216.925 C 230.601 212.905,230.120 212.859,239.473 218.294 C 243.613 220.700,249.160 223.808,251.800 225.202 C 254.440 226.595,257.770 228.451,259.200 229.326 C 266.201 233.609,285.893 241.203,289.989 241.199 C 292.444 241.196,295.006 238.981,297.621 234.600 C 298.146 233.720,300.091 231.020,301.942 228.600 C 306.125 223.131,310.151 217.683,312.139 214.800 C 314.276 211.702,312.437 213.950,306.741 221.400 C 291.027 241.951,292.317 240.959,284.581 238.450 C 272.113 234.406,260.193 228.639,241.263 217.491 C 232.684 212.439,231.123 211.799,229.063 212.493 C 225.782 213.599,197.089 236.621,183.800 248.811 C 175.195 256.704,170.907 260.000,169.242 260.000 C 166.098 260.000,151.126 249.506,134.144 235.400 C 114.780 219.316,114.333 218.974,112.137 218.562 C 109.258 218.022,108.611 218.475,87.383 235.900 C 77.469 244.038,76.850 244.093,77.402 236.801 C 78.846 217.712,85.925 195.834,93.287 187.704 L 95.249 185.537 94.980 182.450 C 94.225 173.795,98.067 160.149,104.117 150.000 C 113.554 134.169,126.448 123.538,139.313 120.983 C 155.011 117.865,156.575 144.020,142.025 166.335 C 137.977 172.543,138.117 172.819,144.933 172.048 C 184.341 167.592,189.323 167.194,209.200 166.924 C 249.017 166.383,281.053 169.275,297.803 174.924 C 305.479 177.513,306.921 178.496,308.021 181.890 C 308.290 182.720,309.003 184.390,309.605 185.600 C 311.960 190.332,316.995 206.341,316.565 207.734 C 316.419 208.210,315.649 209.492,314.855 210.582 C 314.061 211.672,313.627 212.431,313.889 212.268 C 316.476 210.670,319.408 203.808,318.075 202.475 C 317.676 202.076,316.398 198.791,315.235 195.175 C 314.071 191.559,312.508 187.270,311.760 185.645 C 311.013 184.020,310.204 181.950,309.964 181.045 C 308.962 177.280,306.858 175.764,298.800 173.005 C 293.559 171.210,292.465 170.919,284.400 169.178 C 278.953 168.002,266.152 166.462,258.000 166.002 C 254.150 165.785,248.570 165.430,245.600 165.212 C 228.806 163.984,202.967 163.806,191.000 164.836 C 188.580 165.044,183.450 165.478,179.600 165.800 C 175.750 166.122,168.820 166.841,164.200 167.396 C 140.184 170.285,141.689 170.377,144.248 166.176 C 154.468 149.399,156.640 130.480,149.283 122.319 C 146.314 119.027,142.293 118.387,136.094 120.220 M319.098 217.100 C 318.754 217.485,315.430 223.290,311.713 230.000 C 307.996 236.710,304.318 243.100,303.539 244.200 C 302.761 245.300,301.531 247.280,300.807 248.600 C 297.336 254.922,295.912 256.800,294.592 256.800 C 293.788 256.800,275.152 245.870,258.831 235.825 C 234.816 221.045,229.894 221.244,211.214 237.748 C 201.131 246.657,195.950 252.517,180.227 272.800 C 174.525 280.154,173.909 280.800,172.590 280.800 C 171.118 280.800,166.490 276.998,157.848 268.689 C 141.991 253.443,135.446 248.007,121.722 238.685 C 112.155 232.187,108.993 231.345,105.138 234.267 C 101.786 236.809,76.000 262.607,76.000 263.419 C 76.000 263.814,76.268 264.434,76.597 264.796 C 76.925 265.159,77.376 266.433,77.600 267.628 C 83.128 297.172,103.040 326.916,126.793 341.114 C 167.168 365.247,219.313 366.160,262.800 343.496 L 269.800 339.848 275.000 339.818 C 293.845 339.711,311.090 322.984,306.771 309.000 L 305.942 306.315 308.152 302.658 C 320.786 281.751,325.625 257.621,322.685 230.200 C 321.395 218.175,320.631 215.386,319.098 217.100 M319.159 221.124 C 319.952 222.605,320.825 229.248,321.280 237.263 C 322.710 262.443,317.968 283.188,306.568 301.617 C 303.921 305.895,303.605 307.122,304.740 308.716 C 308.067 313.388,305.791 321.634,299.501 327.695 C 292.905 334.051,279.976 339.632,274.654 338.420 C 273.524 338.163,272.122 337.855,271.538 337.737 C 270.724 337.571,268.670 338.453,262.738 341.519 C 216.321 365.505,160.495 363.058,121.305 335.319 C 100.850 320.842,83.887 292.594,79.018 264.902 C 78.222 260.377,77.614 261.180,91.736 248.137 C 107.393 233.676,107.167 233.851,109.775 234.152 C 116.646 234.945,134.122 247.828,153.029 266.037 C 168.576 281.010,170.700 282.800,172.926 282.800 C 174.655 282.800,175.034 282.387,185.396 269.200 C 199.350 251.442,206.011 244.197,216.271 235.615 C 230.830 223.439,235.025 223.619,258.000 237.412 C 262.290 239.987,268.860 243.847,272.600 245.990 C 276.340 248.132,282.569 251.711,286.443 253.943 C 297.108 260.087,295.023 261.830,309.819 234.400 C 317.940 219.346,318.092 219.130,319.159 221.124 " stroke="none" fill="#b5cab9" fill-rule="evenodd"></path><path id="path7" d="M185.458 3.506 C 185.354 3.674,186.648 3.757,188.334 3.689 C 192.994 3.501,193.418 3.315,189.324 3.254 C 187.302 3.225,185.562 3.338,185.458 3.506 M184.800 19.835 C 172.766 21.248,156.509 27.340,154.018 31.370 C 153.040 32.954,153.008 33.989,153.807 38.200 C 154.411 41.381,156.340 52.919,157.418 59.800 C 158.678 67.833,160.433 71.596,165.766 77.697 C 167.435 79.605,168.800 81.444,168.800 81.783 C 168.800 83.439,161.945 81.776,158.156 79.202 C 155.038 77.084,153.580 77.077,149.756 79.162 C 106.470 102.760,65.020 162.590,53.848 217.600 C 40.489 283.375,73.045 346.834,132.200 370.326 C 209.990 401.219,308.454 368.487,338.606 301.712 C 370.075 232.019,330.002 133.126,250.224 83.601 C 234.397 73.775,231.009 72.763,226.032 76.369 C 222.548 78.893,220.138 79.879,216.461 80.284 C 213.212 80.642,213.107 79.930,215.976 77.000 C 220.007 72.883,222.784 67.738,224.073 62.000 C 224.933 58.171,224.789 30.946,223.900 29.321 C 221.104 24.207,197.120 18.389,184.800 19.835 M200.000 21.788 C 212.360 23.792,220.458 26.492,222.543 29.303 C 224.504 31.947,224.234 58.553,222.184 64.711 C 220.557 69.598,218.245 73.262,214.610 76.716 C 207.860 83.129,208.204 84.034,216.824 82.553 C 221.232 81.796,223.941 80.683,227.420 78.201 C 230.793 75.793,231.168 75.839,238.437 79.528 C 286.933 104.146,330.790 159.996,342.935 212.600 C 346.083 226.237,347.182 235.468,347.172 248.200 C 347.128 303.564,317.555 344.837,262.200 366.787 C 240.103 375.549,219.466 379.400,194.600 379.400 C 180.750 379.400,175.647 378.962,162.000 376.604 C 83.776 363.088,37.948 289.504,58.007 209.631 C 70.378 160.374,107.363 107.382,145.518 84.249 C 153.389 79.477,154.075 79.307,157.292 81.317 C 162.658 84.670,173.200 86.522,173.200 84.112 C 173.200 83.781,171.255 81.595,168.877 79.255 C 160.827 71.332,160.274 69.960,156.785 49.237 C 153.756 31.251,153.711 32.114,157.819 29.624 C 169.439 22.582,185.963 19.512,200.000 21.788 M242.528 38.000 C 242.528 39.430,242.601 40.015,242.689 39.300 C 242.778 38.585,242.778 37.415,242.689 36.700 C 242.601 35.985,242.528 36.570,242.528 38.000 M242.514 42.600 C 242.517 43.700,242.595 44.103,242.687 43.495 C 242.779 42.886,242.777 41.986,242.682 41.495 C 242.587 41.003,242.511 41.500,242.514 42.600 M140.114 56.200 C 140.117 57.300,140.195 57.703,140.287 57.095 C 140.379 56.486,140.377 55.586,140.282 55.095 C 140.187 54.603,140.111 55.100,140.114 56.200 M270.400 75.354 C 270.400 75.439,270.895 75.827,271.500 76.216 L 272.600 76.924 271.838 76.062 C 271.164 75.299,270.400 74.923,270.400 75.354 M367.720 237.200 C 367.720 238.410,367.795 238.905,367.887 238.300 C 367.978 237.695,367.978 236.705,367.887 236.100 C 367.795 235.495,367.720 235.990,367.720 237.200 M367.770 249.000 C 367.771 253.840,367.829 255.765,367.899 253.278 C 367.969 250.791,367.969 246.831,367.898 244.478 C 367.828 242.125,367.770 244.160,367.770 249.000 M32.134 254.000 C 32.134 255.650,32.205 256.325,32.291 255.500 C 32.378 254.675,32.378 253.325,32.291 252.500 C 32.205 251.675,32.134 252.350,32.134 254.000 M367.731 260.600 C 367.733 262.140,367.805 262.721,367.892 261.891 C 367.979 261.061,367.977 259.801,367.889 259.091 C 367.800 258.381,367.729 259.060,367.731 260.600 M160.637 396.340 C 160.522 396.526,161.006 396.688,161.714 396.699 C 162.762 396.715,162.852 396.657,162.200 396.387 C 161.132 395.945,160.886 395.938,160.637 396.340 M170.977 398.038 C 170.854 398.237,171.213 398.400,171.776 398.400 C 173.002 398.400,173.101 398.172,172.000 397.884 C 171.561 397.769,171.100 397.838,170.977 398.038 " stroke="none" fill="#4a9274" fill-rule="evenodd"></path><path id="path8" d="M319.854 202.029 C 319.132 202.597,318.800 203.238,318.800 204.065 L 318.800 205.271 320.031 204.236 C 320.708 203.666,321.455 203.200,321.693 203.200 C 322.903 203.200,328.053 210.213,332.121 217.400 C 335.800 223.902,335.109 223.941,328.584 217.600 C 323.295 212.461,322.456 212.035,320.896 213.700 C 318.749 215.992,319.474 217.726,321.663 215.537 C 322.890 214.310,323.251 214.564,330.042 221.433 C 340.566 232.076,341.899 231.461,334.943 219.171 C 326.501 204.253,322.625 199.849,319.854 202.029 M229.775 213.902 C 228.910 214.042,219.282 221.134,213.800 225.669 C 194.159 241.915,189.148 246.160,183.157 251.630 C 170.751 262.957,170.381 263.086,162.790 258.748 C 160.046 257.180,157.309 255.638,156.708 255.323 C 156.107 255.007,155.524 254.600,155.411 254.418 C 155.299 254.236,154.275 253.600,153.135 253.004 C 151.996 252.409,150.812 251.669,150.503 251.361 C 150.195 251.052,149.708 250.800,149.420 250.800 C 149.133 250.800,148.677 250.534,148.407 250.208 C 147.363 248.951,145.600 248.364,145.600 249.273 C 145.600 249.823,145.790 250.013,146.187 249.860 C 146.510 249.736,146.898 249.835,147.049 250.079 C 147.215 250.348,147.141 250.411,146.862 250.238 C 146.608 250.081,146.400 250.143,146.400 250.376 C 146.400 250.609,146.580 250.800,146.800 250.800 C 147.020 250.800,147.200 251.070,147.200 251.400 C 147.200 251.730,146.990 252.000,146.733 252.000 C 146.477 252.000,146.402 252.135,146.567 252.300 C 146.732 252.465,147.061 252.600,147.299 252.600 C 148.000 252.600,149.281 255.264,149.082 256.307 C 148.856 257.487,150.183 259.256,154.949 264.125 C 156.847 266.064,158.400 267.830,158.400 268.049 C 158.400 268.268,158.535 268.370,158.700 268.276 C 159.095 268.051,160.819 269.848,160.507 270.159 C 160.375 270.292,160.554 270.400,160.904 270.400 C 161.255 270.400,161.960 270.924,162.471 271.563 C 162.982 272.203,164.435 273.563,165.700 274.585 C 166.965 275.608,168.000 276.704,168.000 277.022 C 168.000 277.340,168.151 277.600,168.336 277.600 C 168.520 277.600,168.858 278.010,169.086 278.510 C 169.656 279.761,172.023 280.981,173.272 280.668 C 173.954 280.497,176.190 277.944,180.420 272.509 C 193.503 255.700,195.544 253.254,202.370 246.200 C 210.058 238.255,220.546 229.512,225.563 226.863 C 230.098 224.470,234.602 224.345,240.741 226.443 C 244.433 227.705,250.768 230.791,254.300 233.048 C 255.455 233.786,256.403 234.257,256.406 234.095 C 256.409 233.933,256.603 234.070,256.837 234.400 C 257.214 234.933,257.243 234.933,257.099 234.400 C 257.010 234.070,256.530 233.595,256.033 233.345 C 255.399 233.027,255.289 232.827,255.664 232.677 C 256.093 232.506,256.095 232.457,255.676 232.432 C 255.367 232.413,255.276 232.196,255.453 231.900 C 255.657 231.560,255.537 231.576,255.077 231.949 C 254.386 232.509,254.208 232.270,254.353 230.976 C 254.379 230.742,254.015 230.138,253.545 229.633 C 252.895 228.935,252.812 228.640,253.198 228.401 C 253.564 228.175,253.468 228.012,252.853 227.817 C 252.384 227.668,252.000 227.405,252.000 227.232 C 252.000 226.916,247.447 223.200,247.060 223.200 C 246.946 223.200,245.257 222.133,243.306 220.828 C 235.725 215.757,231.541 213.615,229.775 213.902 M62.464 229.419 C 61.385 231.788,62.477 247.691,64.761 262.853 C 65.722 269.239,66.492 270.765,68.495 270.262 C 70.685 269.711,77.645 262.400,75.979 262.400 C 75.786 262.400,74.079 263.750,72.187 265.400 C 67.497 269.490,67.121 269.285,66.183 262.133 C 65.870 259.750,65.442 256.900,65.231 255.800 C 64.677 252.914,64.298 241.505,64.735 240.857 C 65.133 240.266,65.910 242.137,66.755 245.720 C 67.602 249.312,69.328 250.706,71.496 249.551 C 72.817 248.848,76.400 245.641,76.400 245.163 C 76.400 244.285,74.573 244.931,72.905 246.400 C 69.708 249.214,69.075 248.636,67.424 241.400 C 64.781 229.820,63.591 226.945,62.464 229.419 " stroke="none" fill="#96eac3" fill-rule="evenodd"></path></g></svg>