<svg width="147" height="26" viewBox="0 0 147 26" fill="none" xmlns="http://www.w3.org/2000/svg">
<path d="M71.1115 11.6556V0H77.0725C78.6044 0 79.7477 0.283065 80.5026 0.849196C81.2574 1.40423 81.6348 2.13687 81.6348 3.04711C81.6348 3.64655 81.4739 4.17383 81.1519 4.62895C80.8411 5.07297 80.3971 5.42819 79.8199 5.69461C79.2537 5.94992 78.5766 6.07758 77.7885 6.07758L78.1215 5.27834C78.9429 5.27834 79.6589 5.40599 80.2694 5.66131C80.88 5.90552 81.3518 6.26629 81.6848 6.74361C82.0289 7.20984 82.201 7.78152 82.201 8.45866C82.201 9.46881 81.7902 10.257 80.9688 10.8231C80.1584 11.3781 78.9707 11.6556 77.4055 11.6556H71.1115ZM74.375 9.27455H77.1391C77.7052 9.27455 78.1326 9.1802 78.4212 8.99149C78.7209 8.79167 78.8708 8.49196 78.8708 8.09234C78.8708 7.69272 78.7209 7.39855 78.4212 7.20984C78.1326 7.01003 77.7052 6.91012 77.1391 6.91012H74.1419V4.62895H76.6395C77.1946 4.62895 77.6109 4.5346 77.8884 4.34589C78.1659 4.15718 78.3046 3.87411 78.3046 3.49669C78.3046 3.11927 78.1659 2.84175 77.8884 2.66414C77.6109 2.47543 77.1946 2.38108 76.6395 2.38108H74.375V9.27455Z" fill="#3D4E60"/>
<path d="M86.6119 11.6556V6.72696L87.3778 8.70842L82.1661 0H85.6461L89.4092 6.31069H87.3945L91.1742 0H94.3712L89.1761 8.70842L89.9088 6.72696V11.6556H86.6119Z" fill="#3D4E60"/>
<path d="M97.4143 11.6556V2.61419H93.8343V0H104.274V2.61419H100.711V11.6556H97.4143Z" fill="#3D4E60"/>
<path d="M108.533 4.51239H113.945V6.97673H108.533V4.51239ZM108.766 9.10804H114.861V11.6556H105.503V0H114.644V2.54759H108.766V9.10804Z" fill="#3D4E60"/>
<path d="M74.6914 26L69.7128 14.3444H73.2761L77.4721 24.4348H75.3741L79.67 14.3444H82.9336L77.9383 26H74.6914Z" fill="#3D4E60"/>
<path d="M81.8107 26L86.9558 14.3444H90.2027L95.3645 26H91.9344L87.9049 15.9595H89.2037L85.1742 26H81.8107ZM84.6247 23.7355L85.4739 21.3044H91.1685L92.0177 23.7355H84.6247Z" fill="#3D4E60"/>
<path d="M96.2992 26V14.3444H101.627C102.693 14.3444 103.609 14.5164 104.375 14.8605C105.152 15.2047 105.751 15.7042 106.173 16.3591C106.595 17.003 106.806 17.7689 106.806 18.657C106.806 19.5339 106.595 20.2943 106.173 20.9381C105.751 21.5709 105.152 22.0593 104.375 22.4034C103.609 22.7364 102.693 22.9029 101.627 22.9029H98.1308L99.5961 21.5209V26H96.2992ZM103.509 26L100.612 21.754H104.125L107.039 26H103.509ZM99.5961 21.8706L98.1308 20.3553H101.428C102.116 20.3553 102.627 20.2055 102.96 19.9058C103.304 19.6061 103.476 19.1898 103.476 18.657C103.476 18.113 103.304 17.6912 102.96 17.3915C102.627 17.0918 102.116 16.9419 101.428 16.9419H98.1308L99.5961 15.4267V21.8706Z" fill="#3D4E60"/>
<path d="M108.625 26V14.3444H111.922V26H108.625Z" fill="#3D4E60"/>
<path d="M117.298 18.8568H122.709V21.3211H117.298V18.8568ZM117.531 23.4524H123.625V26H114.267V14.3444H123.409V16.892H117.531V23.4524Z" fill="#3D4E60"/>
<path d="M127.935 26V16.9586H124.356V14.3444H134.796V16.9586H131.232V26H127.935Z" fill="#3D4E60"/>
<path d="M138.695 26V21.0713L139.461 23.0528L134.249 14.3444H137.729L141.492 20.6551H139.477L143.257 14.3444H146.454L141.259 23.0528L141.992 21.0713V26H138.695Z" fill="#3D4E60"/>
<path d="M19.2047 0L30.4219 26H36.3647L44.5497 7.09076L38.574 7.09076L33.6119 18.57L25.7047 0H19.2047Z" fill="#3D4E60"/>
<path d="M39.5957 4.72712L65.8347 4.72713V0H41.639L39.5957 4.72712Z" fill="#3D4E60"/>
<path d="M57.5147 7.09076L51.4975 7.09076V26H57.5147V7.09076Z" fill="#3D4E60"/>
<path d="M0 0H14.3505C17.2092 5.41763e-05 19.5938 2.03004 20.1414 4.72712H0V0Z" fill="#3D4E60"/>
<path d="M0 7.09076V11.8182H14.3505C17.2093 11.8181 19.594 9.78799 20.1415 7.09076H0Z" fill="#3D4E60"/>
<path d="M20.1415 21.2726C19.594 23.9698 17.2094 26 14.3506 26L0 26.0001V21.2726H20.1415Z" fill="#3D4E60"/>
<path d="M20.1414 18.9089H0V14.1819H14.3272L14.3505 14.1818C17.2092 14.1818 19.5938 16.2118 20.1414 18.9089Z" fill="#3D4E60"/>
</svg>
