<svg width="2534" height="475" viewBox="0 0 2534 475" fill="none" xmlns="http://www.w3.org/2000/svg">
<path fill-rule="evenodd" clip-rule="evenodd" d="M144.493 405.095C144.493 366.548 175.764 335.188 214.204 335.188C252.644 335.188 283.917 366.551 283.917 405.095C283.917 443.639 252.641 475 214.204 475C175.767 475 144.493 443.642 144.493 405.095ZM154.019 405.095C154.019 438.372 181.017 465.447 214.204 465.447C247.388 465.447 274.388 438.372 274.388 405.095C274.388 371.818 247.388 344.743 214.204 344.743C181.019 344.743 154.019 371.818 154.019 405.095ZM300.183 383.203L305.858 383.203C305.932 383.57 305.998 383.941 306.064 384.314C306.922 389.129 307.257 394.047 307.355 398.936C307.347 404.725 306.883 410.693 305.8 416.379C304.953 421.149 303.615 425.852 301.815 430.336C300.358 433.917 298.621 437.379 296.506 440.595L296.324 440.511C300.563 426.029 303.792 411.371 302.35 396.315L302.242 394.931L302.065 393.555C301.741 390.871 301.308 387.996 300.693 385.381C300.532 384.653 300.36 383.922 300.183 383.203ZM293.505 350.858L287.696 354.672C290.934 359.51 293.722 364.733 295.995 370.296L302.522 370.296C300.234 363.42 297.209 356.906 293.505 350.858ZM270.404 325.565C277.2 330.591 283.203 336.541 288.289 343.228L282.886 348.169C277.752 341.872 271.768 336.391 265.109 331.867L270.404 325.565ZM256.52 326.753L261.395 319.701C256.182 316.747 250.599 314.283 244.694 312.372C242.746 311.745 240.78 311.178 238.795 310.675L236.546 319.458C243.588 321.067 250.282 323.529 256.517 326.753L256.52 326.753ZM334.543 396.014C327.343 400.153 321.398 404.55 316.644 408.563L316.644 384.92L360.305 384.92C353.046 387.099 344.101 390.519 334.543 396.014ZM309.224 359.622C310.966 363.453 311.964 366.986 312.552 369.855C351.071 370.207 389.59 370.559 428.109 370.914L392.895 340.271C388.545 344.186 381.03 349.601 370.63 351.361C356.539 353.746 345.156 348.061 338.33 344.651L338.325 344.649C331.069 341.023 325.8 336.772 322.464 333.704C319.972 335.882 317.116 338.161 313.877 340.417C309.501 343.466 305.307 345.861 301.527 347.748C303.884 350.424 306.825 354.358 309.221 359.622L309.224 359.622ZM306.606 326.518L295.253 337.902L295.253 337.905C292.704 334.742 289.668 331.322 286.086 327.836C282.341 324.189 278.682 321.137 275.322 318.601L284.666 309.231C288.331 312.119 291.996 315.006 295.661 317.894C299.309 320.769 302.957 323.643 306.606 326.518ZM265.942 308.878L267.411 306.805C269.27 304.182 271.129 301.558 272.987 298.933C269.149 295.423 264.929 291.048 260.763 285.691C257.918 282.03 255.542 278.481 253.56 275.185C251.593 279.46 249.626 283.735 247.658 288.01L247.524 288.3C245.608 292.465 243.691 296.629 241.775 300.794C245.016 301.718 248.722 303.012 252.689 304.844C257.256 306.953 261.075 309.272 264.147 311.411L265.942 308.878ZM125.867 394.931L125.758 396.315C124.317 411.371 127.545 426.029 131.784 440.511L131.602 440.595C129.488 437.379 127.751 433.917 126.294 430.336C124.491 425.852 123.156 421.151 122.308 416.379C121.226 410.691 120.762 404.722 120.754 398.936C120.851 394.047 121.187 389.129 122.045 384.314L122.054 384.258L122.055 384.255C122.118 383.904 122.18 383.551 122.25 383.203L127.925 383.203C127.749 383.922 127.58 384.653 127.416 385.381C126.801 387.996 126.368 390.868 126.043 393.555L125.867 394.931ZM125.59 370.296L132.118 370.296C134.39 364.735 137.178 359.51 140.416 354.672L134.607 350.858C130.903 356.903 127.878 363.42 125.59 370.296ZM157.711 325.565L163.006 331.867C156.344 336.391 150.363 341.87 145.229 348.169L139.825 343.228C144.915 336.541 150.917 330.591 157.711 325.565ZM166.719 319.701L171.594 326.753L171.597 326.753C177.832 323.529 184.526 321.067 191.568 319.458L189.319 310.675C187.337 311.178 185.368 311.745 183.42 312.372C177.512 314.283 171.932 316.747 166.719 319.701ZM226.643 317.788C224.735 317.597 222.655 317.431 220.422 317.319C215.823 317.086 211.558 317.124 207.688 317.319C205.455 317.433 203.375 317.597 201.467 317.788L201.467 308.391C205.637 307.883 209.845 307.658 214.055 307.73C218.268 307.658 222.472 307.883 226.643 308.391L226.643 317.788ZM93.5716 396.014C100.772 400.153 106.717 404.55 111.47 408.563L111.47 384.92L67.8095 384.92C75.0683 387.101 84.0138 390.519 93.5716 396.014ZM118.889 359.622C117.147 363.453 116.149 366.986 115.561 369.855L115.558 369.855C77.0391 370.21 38.5201 370.562 0.00107721 370.914L35.2153 340.271C39.5653 344.186 47.0828 349.601 57.48 351.361C71.5779 353.746 82.9622 348.058 89.7855 344.649C97.0416 341.023 102.31 336.769 105.647 333.704C108.138 335.882 110.994 338.161 114.233 340.417C118.609 343.463 122.804 345.861 126.584 347.748C124.226 350.424 121.283 354.358 118.889 359.622ZM142.026 327.832C145.771 324.188 149.427 321.133 152.79 318.597L143.446 309.227C139.775 312.119 136.105 315.011 132.436 317.903C128.793 320.773 125.15 323.644 121.506 326.514L132.859 337.899C135.408 334.736 138.444 331.316 142.026 327.83L142.026 327.832ZM186.345 300.8C183.103 301.727 179.397 303.018 175.43 304.85C170.866 306.96 167.047 309.278 163.972 311.417C162.121 308.803 160.269 306.19 158.418 303.577L158.404 303.558C157.313 302.019 156.222 300.479 155.132 298.94C158.97 295.43 163.193 291.052 167.356 285.697C170.201 282.039 172.577 278.487 174.559 275.192C176.523 279.46 178.487 283.728 180.452 287.996C182.416 292.264 184.381 296.532 186.345 300.8ZM192.505 245.515C193.904 252.101 195.168 259.112 196.216 266.529C197.808 277.786 198.668 288.345 199.041 298.048L229.079 298.048C229.451 288.345 230.311 277.786 231.903 266.529C232.951 259.115 234.215 252.101 235.614 245.515C231.8 238.141 229.657 231.682 228.411 227.13L228.409 227.122C225.952 218.139 223.84 210.415 226.447 201.521C227.962 196.357 230.538 192.601 232.341 190.359L214.12 74.4245L214.12 73.6965C214.114 73.7303 214.108 73.7643 214.103 73.7984L214.094 73.85C214.086 73.9014 214.077 73.9528 214.069 74.0039L214.062 74.0486C214.044 73.9321 214.025 73.813 214.007 73.6965L214.007 74.4245C207.965 112.848 201.926 151.272 195.887 189.696L195.783 190.359C197.586 192.601 200.162 196.357 201.677 201.521C204.285 210.415 202.172 218.139 199.716 227.122L199.714 227.13C198.468 231.682 196.324 238.144 192.51 245.515L192.505 245.515ZM241.999 105.142L214.795 0.000835844L186.12 105.142L214.795 48.5274L241.999 105.142Z" fill="white"/>
<path d="M214.201 335.188C175.761 335.188 144.49 366.548 144.49 405.095C144.49 443.642 175.764 475 214.201 475C252.638 475 283.914 443.639 283.914 405.095C283.914 366.551 252.641 335.188 214.201 335.188ZM214.201 465.447C181.014 465.447 154.016 438.372 154.016 405.095C154.016 371.818 181.016 344.743 214.201 344.743C247.385 344.743 274.385 371.818 274.385 405.095C274.385 438.372 247.385 465.447 214.201 465.447Z" fill="#970017"/>
<path d="M1883.7 415.51L1832.69 331.717C1826.18 321.08 1815.76 315.219 1803.38 315.219C1791.01 315.219 1780.59 321.08 1774.08 331.717L1723.06 415.51C1719.81 420.72 1712.86 422.457 1707.65 419.201C1702.44 415.945 1700.92 409.215 1703.96 403.788L1754.97 320.212C1765.61 302.845 1783.19 292.859 1803.38 292.859C1823.57 292.859 1841.16 302.845 1851.79 320.212L1902.81 403.788C1906.06 409.215 1904.33 415.945 1899.12 419.201C1893.91 422.457 1886.96 420.72 1883.7 415.51Z" fill="white"/>
<path d="M1534.93 377.087C1527.33 377.087 1521.03 383.165 1521.03 390.763V409.649C1521.03 415.728 1516.04 420.72 1509.96 420.72C1503.88 420.72 1498.89 415.728 1498.89 409.649V390.546C1498.89 370.792 1514.95 354.945 1534.71 354.728H1631.31C1641.95 354.728 1650.85 345.827 1650.85 334.973C1650.85 324.119 1641.95 315.219 1631.31 315.219H1509.96C1503.88 315.219 1498.89 310.226 1498.89 304.148C1498.89 297.852 1503.88 292.859 1509.96 292.859H1631.31C1654.32 292.859 1673.21 311.745 1673.21 334.973C1673.21 350.169 1664.96 363.628 1652.58 371.009L1671.69 404.005C1674.73 409.432 1672.99 416.162 1667.56 419.418C1662.35 422.457 1655.41 420.503 1652.37 415.293L1633.48 382.514C1631.53 379.041 1628.05 377.087 1623.93 377.087H1534.93Z" fill="white"/>
<path d="M1354.13 367.97H1446.18C1452.25 367.97 1457.46 362.977 1457.46 356.898V356.681C1457.25 350.603 1452.25 345.61 1446.18 345.61H1354.13C1347.84 345.61 1342.85 350.82 1342.85 356.898C1342.85 362.977 1347.84 367.97 1354.13 367.97ZM1462.24 398.578C1468.1 398.795 1472.66 403.788 1472.66 409.649C1472.66 415.728 1467.67 420.72 1461.59 420.72H1355C1340.02 420.72 1326.56 415.728 1316.14 404.873C1303.77 392.283 1298.34 374.265 1298.34 356.898C1298.34 323.034 1318.97 292.859 1355 292.859H1461.59C1467.67 292.859 1472.66 297.852 1472.66 304.148C1472.66 310.009 1468.1 314.785 1462.24 315.219H1355C1331.56 315.219 1320.49 335.624 1320.49 356.898C1320.49 368.404 1323.96 380.994 1332.21 389.244C1338.29 395.756 1346.1 398.578 1355 398.578H1462.24Z" fill="white"/>
<path d="M1058.14 322.376C1058.14 310.219 1064 298.714 1076.16 294.372C1086.8 290.465 1098.73 294.155 1106.55 302.187L1160.17 357.326C1162.56 359.714 1167.55 359.714 1169.94 357.326L1223.56 302.187C1231.59 294.155 1243.31 290.465 1253.95 294.372C1266.1 298.714 1272.18 310.219 1272.18 322.376V409.643C1272.18 415.938 1267.19 420.931 1260.89 420.931C1254.82 420.931 1249.82 415.938 1249.82 409.643V322.376C1249.82 319.988 1249.17 316.515 1246.57 315.429C1244.18 314.561 1241.36 316.081 1239.62 317.817L1185.78 372.956C1174.71 384.244 1155.39 384.244 1144.32 372.956L1090.49 317.817C1088.75 316.081 1085.93 314.561 1083.54 315.429C1080.93 316.515 1080.28 319.988 1080.28 322.376V409.643C1080.28 415.938 1075.29 420.931 1069.21 420.931C1063.13 420.931 1058.14 415.938 1058.14 409.643V322.376Z" fill="white"/>
<path d="M1009.81 304.148C1009.81 297.852 1014.81 292.859 1020.88 292.859C1026.96 292.859 1031.95 297.852 1031.95 304.148V409.649C1031.95 415.728 1026.96 420.72 1020.88 420.72C1014.81 420.72 1009.81 415.728 1009.81 409.649V304.148Z" fill="white"/>
<path d="M843.736 317.817C841.999 316.081 839.177 314.561 836.789 315.429C834.184 316.515 833.533 319.988 833.533 322.376V409.643C833.533 415.938 828.54 420.931 822.462 420.931C816.383 420.931 811.391 415.938 811.391 409.643V322.376C811.391 310.219 817.252 298.714 829.408 294.372C840.045 290.465 851.985 294.155 859.8 302.187L951.191 395.967C952.928 397.703 955.75 399.223 958.138 398.354C960.743 397.269 961.394 393.796 961.394 391.191V303.924C961.394 297.846 966.387 292.853 972.465 292.853C978.761 292.853 983.753 297.846 983.753 303.924V391.191C983.753 403.564 977.675 415.07 965.736 419.411C954.882 423.102 943.159 419.628 935.127 411.596L843.736 317.817Z" fill="white"/>
<path d="M762.898 415.51L711.884 331.717C705.372 321.08 694.952 315.219 682.578 315.219C670.205 315.219 659.785 321.08 653.272 331.717L602.258 415.51C599.002 420.72 592.055 422.457 586.845 419.201C581.635 415.945 580.116 409.215 583.155 403.788L634.169 320.212C644.806 302.845 662.39 292.859 682.578 292.859C702.767 292.859 720.35 302.845 730.987 320.212L782.002 403.788C785.258 409.215 783.521 415.945 778.311 419.201C773.101 422.457 766.155 420.72 762.898 415.51Z" fill="white"/>
<path d="M2394.97 138.294C2387.38 138.294 2381.08 144.372 2381.08 151.97V170.856C2381.08 176.935 2376.09 181.927 2370.01 181.927C2363.93 181.927 2358.94 176.935 2358.94 170.856V151.753C2358.94 131.999 2375 116.152 2394.76 115.935H2491.36C2501.99 115.935 2510.89 107.034 2510.89 96.1802C2510.89 85.3262 2501.99 76.4258 2491.36 76.4258H2370.01C2363.93 76.4258 2358.94 71.4329 2358.94 65.3547C2358.94 59.0593 2363.93 54.0664 2370.01 54.0664H2491.36C2514.37 54.0664 2533.25 72.9525 2533.25 96.1802C2533.25 111.376 2525 124.835 2512.63 132.216L2531.73 165.212C2534.77 170.639 2533.04 177.369 2527.61 180.625C2522.4 183.664 2515.45 181.71 2512.41 176.5L2493.53 143.721C2491.57 140.248 2488.1 138.294 2483.98 138.294H2394.97Z" fill="white"/>
<path d="M2199.81 159.785H2276C2284.9 159.785 2292.72 156.963 2299.01 150.451C2307.04 142.202 2310.52 129.611 2310.52 118.105C2310.52 97.0486 2299.45 76.4258 2276 76.4258H2199.81C2191.12 76.4258 2183.09 79.2479 2177.01 85.7603C2168.76 94.0094 2165.29 106.6 2165.29 118.105C2165.29 139.162 2176.36 159.785 2199.81 159.785ZM2160.95 166.081C2148.58 153.49 2143.15 135.472 2143.15 118.105C2143.15 84.2407 2163.77 54.0664 2199.81 54.0664H2276C2290.98 54.0664 2304.66 59.2764 2315.08 70.1304C2327.23 82.7212 2332.88 100.739 2332.88 118.105C2332.88 151.753 2312.04 181.927 2276 181.927H2199.81C2184.83 181.927 2171.37 176.935 2160.95 166.081Z" fill="white"/>
<path d="M1998.38 129.177H2090.42C2096.5 129.177 2101.71 124.184 2101.71 118.105C2101.71 118.105 2101.71 117.888 2101.49 117.888C2101.49 111.81 2096.5 106.817 2090.42 106.817H1998.38C1992.08 106.817 1987.09 112.027 1987.09 118.105C1987.09 124.184 1992.08 129.177 1998.38 129.177ZM1964.73 118.105V171.725C1964.51 177.369 1959.52 181.927 1953.66 181.927C1947.58 181.927 1942.59 176.935 1942.59 170.856V118.105C1942.59 84.2407 1963.21 54.0664 1999.24 54.0664H2105.83C2111.91 54.0664 2116.9 59.0593 2116.9 65.3547C2116.9 71.2158 2112.34 75.9917 2106.48 76.4258H1999.24C1976.02 76.4258 1964.73 96.8315 1964.73 118.105Z" fill="white"/>
<path d="M1618.88 65.3547C1618.88 59.0593 1623.87 54.0664 1629.95 54.0664C1636.02 54.0664 1641.02 59.0593 1641.02 65.3547V106.817H1770.83V65.3547C1770.83 59.0593 1775.83 54.0664 1782.12 54.0664C1788.2 54.0664 1793.19 59.0593 1793.19 65.3547V170.856C1793.19 176.935 1788.2 181.927 1782.12 181.927C1775.83 181.927 1770.83 176.935 1770.83 170.856V129.177H1641.02V170.856C1641.02 176.935 1636.02 181.927 1629.95 181.927C1623.87 181.927 1618.88 176.935 1618.88 170.856V65.3547Z" fill="white"/>
<path d="M1418.33 118.105C1418.33 84.2407 1438.95 54.0664 1474.99 54.0664H1581.57C1587.65 54.0664 1592.64 59.0593 1592.64 65.3547C1592.64 71.4329 1587.65 76.4258 1581.57 76.4258H1474.99C1451.54 76.4258 1440.47 97.0486 1440.47 118.105C1440.47 129.611 1443.94 142.202 1452.19 150.451C1458.27 156.963 1466.3 159.785 1474.99 159.785H1581.57C1587.65 159.785 1592.64 164.778 1592.64 170.856C1592.64 176.935 1587.65 181.927 1581.57 181.927H1474.99C1460.01 181.927 1446.55 176.935 1436.13 166.081C1423.76 153.49 1418.33 135.472 1418.33 118.105Z" fill="white"/>
<path d="M1252.33 138.294C1244.73 138.294 1238.44 144.372 1238.44 151.97V170.856C1238.44 176.935 1233.45 181.927 1227.37 181.927C1221.29 181.927 1216.3 176.935 1216.3 170.856V151.753C1216.3 131.999 1232.36 116.152 1252.12 115.935H1348.72C1359.35 115.935 1368.25 107.034 1368.25 96.1802C1368.25 85.3262 1359.35 76.4258 1348.72 76.4258H1227.37C1221.29 76.4258 1216.3 71.4329 1216.3 65.3547C1216.3 59.0593 1221.29 54.0664 1227.37 54.0664H1348.72C1371.73 54.0664 1390.61 72.9525 1390.61 96.1802C1390.61 111.376 1382.36 124.835 1369.99 132.216L1389.09 165.212C1392.13 170.639 1390.4 177.369 1384.97 180.625C1379.76 183.664 1372.81 181.71 1369.77 176.5L1350.89 143.721C1348.93 140.248 1345.46 138.294 1341.34 138.294H1252.33Z" fill="white"/>
<path d="M1167.8 176.718L1116.79 92.924C1110.28 82.287 1099.86 76.4258 1087.48 76.4258C1075.11 76.4258 1064.69 82.287 1058.18 92.924L1007.16 176.718C1003.91 181.927 996.962 183.664 991.752 180.408C986.542 177.152 985.022 170.422 988.061 164.995L1039.08 81.4187C1049.71 64.0522 1067.3 54.0664 1087.48 54.0664C1107.67 54.0664 1125.26 64.0522 1135.89 81.4187L1186.91 164.995C1190.16 170.422 1188.43 177.152 1183.22 180.408C1178.01 183.664 1171.06 181.927 1167.8 176.718Z" fill="white"/>
<path d="M840.259 129.177H932.301C938.38 129.177 943.59 124.184 943.59 118.105V117.888C943.372 111.81 938.38 106.817 932.301 106.817H840.259C833.963 106.817 828.97 112.027 828.97 118.105C828.97 124.184 833.963 129.177 840.259 129.177ZM948.365 159.785C954.227 160.002 958.785 164.995 958.785 170.856C958.785 176.935 953.792 181.927 947.714 181.927H841.127C826.148 181.927 812.689 176.935 802.269 166.081C789.896 153.49 784.469 135.472 784.469 118.105C784.469 84.2407 805.091 54.0664 841.127 54.0664H947.714C953.792 54.0664 958.785 59.0593 958.785 65.3547C958.785 71.2158 954.227 75.9917 948.365 76.4258H841.127C817.682 76.4258 806.611 96.8315 806.611 118.105C806.611 129.611 810.084 142.202 818.333 150.451C824.412 156.963 832.227 159.785 841.127 159.785H948.365Z" fill="white"/>
<path d="M720.778 159.785C729.027 159.785 735.974 152.839 735.974 144.372C735.974 136.123 729.027 129.177 720.778 129.177H617.664C610.718 129.177 603.988 127.44 598.127 123.75C586.839 117.02 580.109 104.863 580.109 91.6215C580.109 70.9988 596.825 54.0664 617.664 54.0664H743.355C749.433 54.0664 754.426 59.0593 754.426 65.3547C754.426 71.4329 749.433 76.4258 743.355 76.4258H617.664C609.198 76.4258 602.252 83.3724 602.252 91.6215C602.252 100.088 609.198 106.817 617.664 106.817H720.778C727.508 106.817 734.237 108.771 740.099 112.461C751.387 119.191 758.333 131.347 758.333 144.372C758.333 165.212 741.401 181.927 720.778 181.927H595.088C588.793 181.927 583.8 176.935 583.8 170.856C583.8 164.778 588.793 159.785 595.088 159.785H720.778Z" fill="white"/>
</svg>
