<?xml version="1.0" encoding="UTF-8" standalone="no" ?>
<!DOCTYPE svg PUBLIC "-//W3C//DTD SVG 1.1//EN" "http://www.w3.org/Graphics/SVG/1.1/DTD/svg11.dtd">
<svg xmlns="http://www.w3.org/2000/svg" xmlns:xlink="http://www.w3.org/1999/xlink" version="1.1" width="500" height="500" viewBox="0 0 500 500" xml:space="preserve">
<desc>Created with Fabric.js 5.3.0</desc>
<defs>
</defs>
<g transform="matrix(1 0 0 1 249.999997142 250.0000035972)" id="_h-SUJYzHVN9QD5Y0OZ23"  >
<linearGradient id="SVGID_509" gradientUnits="userSpaceOnUse" gradientTransform="matrix(1 0 0 1 -155.1297861821 -247.8946)"  x1="197.45762711864404" y1="172.47087118644066" x2="147.54770795735283" y2="346.1996847457627">
<stop offset="0%" style="stop-color:#8322FF;stop-opacity: 1"/>
<stop offset="100%" style="stop-color:#DD7BFF;stop-opacity: 1"/>
</linearGradient>
<path style="stroke: rgb(255,0,0); stroke-width: 0; stroke-dasharray: none; stroke-linecap: butt; stroke-dashoffset: 0; stroke-linejoin: miter; stroke-miterlimit: 4; fill: url(#SVGID_509); fill-rule: nonzero; opacity: 1;"  transform=" translate(0, 0)" d="M -36.67312 -100.69343 C -40.18823 -91.44987 -39.641619999999996 -81.15244000000001 -35.16768 -72.33295000000001 C -30.69374 -63.51346000000001 -22.707479999999997 -56.99001000000001 -13.172459999999997 -54.36649000000001 L -0.09955999999999676 -50.76954000000001 L -0.09955999999999676 -50.77524000000001 L 109.03939 -24.95157000000001 C 129.68094 -20.06752000000001 146.1979 -4.627060000000011 152.45995 15.639019999999988 C 158.72199999999998 35.90509999999999 153.79442 57.97173999999999 139.5061 73.64882999999999 L -19.303969999999993 247.89459999999997 L 36.67311000000001 100.69342999999998 C 40.18822000000001 91.44986999999998 39.64161000000001 81.15243999999998 35.16767000000001 72.33294999999998 C 30.69373000000001 63.51345999999998 22.707470000000008 56.990009999999984 13.172450000000008 54.366489999999985 L 0.0995500000000078 50.769539999999985 L 0.0995500000000078 50.77523999999998 L -109.03939999999999 24.951569999999982 C -129.68095 20.06751999999998 -146.19790999999998 4.627059999999982 -152.45996 -15.639020000000016 C -158.72200999999998 -35.90510000000002 -153.79443 -57.97174000000002 -139.50611 -73.64883000000002 L 19.30395999999999 -247.89460000000003 z" stroke-linecap="round" />
</g>
</svg>