<?xml version="1.0" encoding="UTF-8"?> <svg xmlns="http://www.w3.org/2000/svg" xmlns:xlink="http://www.w3.org/1999/xlink" id="eKFAI9BSnEl1" viewBox="0 0 1163.8 935.9" shape-rendering="geometricPrecision" text-rendering="geometricPrecision"> <style><![CDATA[#eKFAI9BSnEl7 {animation-name: eKFAI9BSnEl7_s_do, eKFAI9BSnEl7_s_da;animation-duration: 20000ms;animation-fill-mode: forwards;animation-timing-function: linear;animation-direction: normal;animation-iteration-count: infinite;}@keyframes eKFAI9BSnEl7_s_do { 0% {stroke-dashoffset: 7367.64;animation-timing-function: cubic-bezier(0.39,0.575,0.3,0.985)} 100% {stroke-dashoffset: 0}}@keyframes eKFAI9BSnEl7_s_da { 0% {stroke-dasharray: 600} 100% {stroke-dasharray: 400}} #eKFAI9BSnEl8 {animation: eKFAI9BSnEl8_s_do 20000ms linear infinite normal forwards}@keyframes eKFAI9BSnEl8_s_do { 0% {stroke-dashoffset: 13319.34} 100% {stroke-dashoffset: 0}} #eKFAI9BSnEl9 {animation: eKFAI9BSnEl9_s_do 20000ms linear infinite normal forwards}@keyframes eKFAI9BSnEl9_s_do { 0% {stroke-dashoffset: 13319.34;animation-timing-function: cubic-bezier(0.95,0.05,0.795,0.035)} 100% {stroke-dashoffset: 0}}]]></style> <g id="eKFAI9BSnEl2"> <g id="eKFAI9BSnEl3"> <path id="eKFAI9BSnEl4" d="M649.3,350.6C649.4,349.9,697.8,350.1,697.8,350.1C679.8,697.1,347.8,697.1,347.8,697.1C26.8,686.1,2.8,371.1,2.8,371.1C2.8,371.1,-5.2,245.1,59.8,164.1L202.8,257.1C202.8,257.1,167.8,318.1,179.8,383.1C179.8,383.1,192.8,513.1,346.8,525.1C346.8,525.1,514.8,506.1,523.8,368.1C528.8,291,499.1,261.7,475.8,235.1C427.8,180.1,346.8,178.1,346.8,178.1L346.8,650.1C346.8,650.1,629.8,648.1,649.3,350.6ZM133.8,561.1L198.8,497.1C129.8,423.1,140.8,334.1,140.8,334.1C140.8,334.1,139.1,211.8,262.8,162.1C374.8,117.1,449.8,175.1,449.8,175.1L535.8,59.1C535.8,59.1,410.8,-30.9,258.8,16.1L275.8,76.1C335.8,56.1,411.8,74.1,411.8,74.1C530.8,107.1,581.8,200.1,581.8,200.1L605.8,188.1C605.8,188.1,549.8,81.1,394.8,48.1C394.8,48.1,278.8,26.1,169.8,100.1C169.8,100.1,39.8,185.1,44.8,370.1C44.8,370.1,54.8,482.1,133.8,561.1ZM557.8,451.1L557.8,882.1L697.8,883.1L694.8,578.1L777.8,579.1L1021.8,933.1L1158.8,933.1L891.8,550.1C891.8,550.1,934.8,546.1,947.8,541.1C957.5,537.4,974.4,523.5,980.8,516.1C989.2,506.5,998.8,485.4,1001.8,473.1C1005.2,459,1003.7,429.1,999.8,415.1C995.9,401.1,979.3,380.9,968.8,373.1C940.8,352.1,898.8,352.1,898.8,352.1L697.8,349.1L697.8,531.1L823.8,532.1L1008.8,800.1L1115.8,799.1L960.8,573.1C960.8,573.1,1005.6,550.9,1017.8,539.1C1027.7,529.5,1045,505.4,1048.8,492.1C1053.5,475.9,1057.3,441.7,1054.8,425.1C1052.7,411,1044.9,382.8,1036.8,371.1C1028.7,359.4,1005.4,339,992.8,331.1C965.8,314.1,914.8,310.1,914.8,310.1L562.8,309.1L562.8,244.1L925.8,244.1C925.8,244.1,992.7,244.2,1045.8,276.1C1065.8,288.1,1103.1,319.4,1113.8,340.1C1141.8,394.1,1137.3,452.6,1128.8,489.1C1115.8,545.1,1071.8,585.1,1071.8,585.1L1049.8,567.1C1049.8,567.1,1123.8,509.1,1105.8,398.1C1105.8,398.1,1097.8,279.1,925.8,267.1L633.8,263.1L633.3,932.6L732.3,932.6L732.3,451.6Z" fill="none" stroke="rgb(0,241,255)" stroke-width="8" stroke-miterlimit="10"></path> <path id="eKFAI9BSnEl5" d="M649.3,350.6C649.4,349.9,697.8,350.1,697.8,350.1C679.8,697.1,347.8,697.1,347.8,697.1C26.8,686.1,2.8,371.1,2.8,371.1C2.8,371.1,-5.2,245.1,59.8,164.1L202.8,257.1C202.8,257.1,167.8,318.1,179.8,383.1C179.8,383.1,192.8,513.1,346.8,525.1C346.8,525.1,514.8,506.1,523.8,368.1C528.8,291,499.1,261.7,475.8,235.1C427.8,180.1,346.8,178.1,346.8,178.1L346.8,650.1C346.8,650.1,629.8,648.1,649.3,350.6Z" fill="none" stroke="rgb(68,0,255)" stroke-width="8" stroke-miterlimit="10"></path> <path id="eKFAI9BSnEl6" d="M133.8,561.1L198.8,497.1C129.8,423.1,140.8,334.1,140.8,334.1C140.8,334.1,139.1,211.8,262.8,162.1C374.8,117.1,449.8,175.1,449.8,175.1L535.8,59.1C535.8,59.1,410.8,-30.9,258.8,16.1L275.8,76.1C335.8,56.1,411.8,74.1,411.8,74.1C530.8,107.1,581.8,200.1,581.8,200.1L605.8,188.1C605.8,188.1,549.8,81.1,394.8,48.1C394.8,48.1,278.8,26.1,169.8,100.1C169.8,100.1,39.8,185.1,44.8,370.1C44.8,370.1,54.8,482.1,133.8,561.1Z" fill="none" stroke="rgb(114,153,255)" stroke-width="8" stroke-miterlimit="10"></path> <path id="eKFAI9BSnEl7" d="M557.8,451.1L557.8,882.1L697.8,883.1L694.8,578.1L777.8,579.1L1021.8,933.1L1158.8,933.1L891.8,550.1C891.8,550.1,934.8,546.1,947.8,541.1C957.5,537.4,974.4,523.5,980.8,516.1C989.2,506.5,998.8,485.4,1001.8,473.1C1005.2,459,1003.7,429.1,999.8,415.1C995.9,401.1,979.3,380.9,968.8,373.1C940.8,352.1,898.8,352.1,898.8,352.1L697.8,349.1L697.8,531.1L823.8,532.1L1008.8,800.1L1115.8,799.1L960.8,573.1C960.8,573.1,1005.6,550.9,1017.8,539.1C1027.7,529.5,1045,505.4,1048.8,492.1C1053.5,475.9,1057.3,441.7,1054.8,425.1C1052.7,411,1044.9,382.8,1036.8,371.1C1028.7,359.4,1005.4,339,992.8,331.1C965.8,314.1,914.8,310.1,914.8,310.1L562.8,309.1L562.8,244.1L925.8,244.1C925.8,244.1,992.7,244.2,1045.8,276.1C1065.8,288.1,1103.1,319.4,1113.8,340.1C1141.8,394.1,1137.3,452.6,1128.8,489.1C1115.8,545.1,1071.8,585.1,1071.8,585.1L1049.8,567.1C1049.8,567.1,1123.8,509.1,1105.8,398.1C1105.8,398.1,1097.8,279.1,925.8,267.1L633.8,263.1L633.3,932.6L732.3,932.6L732.3,451.6Z" fill="none" stroke="rgb(22,0,255)" stroke-width="8" stroke-miterlimit="10" stroke-dashoffset="7367.64" stroke-dasharray="600"></path> <path id="eKFAI9BSnEl8" d="M649.5,350.9C649.6,350.2,698,350.4,698,350.4C680,697.4,348,697.4,348,697.4C27,686.4,3,371.4,3,371.4C3,371.4,-5,245.4,60,164.4L203,257.4C203,257.4,168,318.4,180,383.4C180,383.4,193,513.4,347,525.4C347,525.4,515,506.4,524,368.4C529.1,291.3,499.3,262.1,476,235.4C428,180.4,347,178.4,347,178.4L347,650.4C347,650.4,630,648.4,649.5,350.9ZM134,561.4L199,497.4C130,423.4,141,334.4,141,334.4C141,334.4,139.3,212.1,263,162.4C375,117.4,450,175.4,450,175.4L536,59.4C536,59.4,411,-30.6,259,16.4L276,76.4C336,56.4,412,74.4,412,74.4C531,107.4,582,200.4,582,200.4L606,188.4C606,188.4,550,81.4,395,48.4C395,48.4,279,26.4,170,100.4C170,100.4,40,185.4,45,370.4C45,370.4,55,482.4,134,561.4ZM558,451.4L558,882.4L698,883.4L695,578.4L778,579.4L1022,933.4L1159,933.4L892,550.4C892,550.4,935,546.4,948,541.4C957.7,537.7,974.6,523.8,981,516.4C989.4,506.9,999.1,485.7,1002,473.4C1005.4,459.3,1003.9,429.4,1000,415.4C996.1,401.4,979.5,381.2,969,373.4C941,352.4,899,352.4,899,352.4L698,349.4L698,531.4L824,532.4L1009,800.4L1116,799.4L961,573.4C961,573.4,1005.8,551.3,1018,539.4C1027.9,529.8,1045.2,505.7,1049,492.4C1053.7,476.3,1057.5,442.1,1055,425.4C1052.9,411.3,1045.1,383.1,1037,371.4C1028.9,359.7,1005.6,339.3,993,331.4C966,314.4,915,310.4,915,310.4L563,309.4L563,244.4L926,244.4C926,244.4,993,244.6,1046,276.4C1066,288.4,1103.3,319.7,1114,340.4C1142,394.4,1137.5,453,1129,489.4C1116,545.4,1072,585.4,1072,585.4L1050,567.4C1050,567.4,1124,509.4,1106,398.4C1106,398.4,1098,279.4,926,267.4L634,263.4L633.5,932.9L732.5,932.9L732.5,451.9Z" fill="none" stroke="rgb(123,79,255)" stroke-width="8" stroke-miterlimit="10" stroke-dashoffset="13319.34" stroke-dasharray="2000"></path> <path id="eKFAI9BSnEl9" d="M649.5,350.9C649.6,350.2,698,350.4,698,350.4C680,697.4,348,697.4,348,697.4C27,686.4,3,371.4,3,371.4C3,371.4,-5,245.4,60,164.4L203,257.4C203,257.4,168,318.4,180,383.4C180,383.4,193,513.4,347,525.4C347,525.4,515,506.4,524,368.4C529.1,291.3,499.3,262.1,476,235.4C428,180.4,347,178.4,347,178.4L347,650.4C347,650.4,630,648.4,649.5,350.9ZM134,561.4L199,497.4C130,423.4,141,334.4,141,334.4C141,334.4,139.3,212.1,263,162.4C375,117.4,450,175.4,450,175.4L536,59.4C536,59.4,411,-30.6,259,16.4L276,76.4C336,56.4,412,74.4,412,74.4C531,107.4,582,200.4,582,200.4L606,188.4C606,188.4,550,81.4,395,48.4C395,48.4,279,26.4,170,100.4C170,100.4,40,185.4,45,370.4C45,370.4,55,482.4,134,561.4ZM558,451.4L558,882.4L698,883.4L695,578.4L778,579.4L1022,933.4L1159,933.4L892,550.4C892,550.4,935,546.4,948,541.4C957.7,537.7,974.6,523.8,981,516.4C989.4,506.9,999.1,485.7,1002,473.4C1005.4,459.3,1003.9,429.4,1000,415.4C996.1,401.4,979.5,381.2,969,373.4C941,352.4,899,352.4,899,352.4L698,349.4L698,531.4L824,532.4L1009,800.4L1116,799.4L961,573.4C961,573.4,1005.8,551.3,1018,539.4C1027.9,529.8,1045.2,505.7,1049,492.4C1053.7,476.3,1057.5,442.1,1055,425.4C1052.9,411.3,1045.1,383.1,1037,371.4C1028.9,359.7,1005.6,339.3,993,331.4C966,314.4,915,310.4,915,310.4L563,309.4L563,244.4L926,244.4C926,244.4,993,244.6,1046,276.4C1066,288.4,1103.3,319.7,1114,340.4C1142,394.4,1137.5,453,1129,489.4C1116,545.4,1072,585.4,1072,585.4L1050,567.4C1050,567.4,1124,509.4,1106,398.4C1106,398.4,1098,279.4,926,267.4L634,263.4L633.5,932.9L732.5,932.9L732.5,451.9Z" fill="none" stroke="rgb(76,223,255)" stroke-width="8" stroke-miterlimit="10" stroke-dashoffset="13319.34" stroke-dasharray="3000"></path> </g> </g> </svg> 