<svg xmlns="http://www.w3.org/2000/svg" xmlns:xlink="http://www.w3.org/1999/xlink" width="1200px" height="1200px" viewBox="0 0 1200 1200">
  <g id="6482b172-0230-469f-ab0e-e083cf18fe76">
<rect style="stroke: rgb(193,193,193); stroke-width: 0; stroke-dasharray: none; stroke-linecap: butt; stroke-dashoffset: 0; stroke-linejoin: miter; stroke-miterlimit: 4; fill: rgb(255,255,255); fill-rule: nonzero; opacity: 0;" x="-600" y="-600" rx="0" ry="0" width="1200" height="1200" transform="matrix(1 0 0 1 600 600)"/>
</g>
<g id="OBuWaL9Y0LNTpO4qcrDiS">
<g style="">
		<g id="YDi4toYvwI_a-6THrlSLt">
<path style="stroke: rgb(193,193,193); stroke-width: 0; stroke-dasharray: none; stroke-linecap: butt; stroke-dashoffset: 0; stroke-linejoin: miter; stroke-miterlimit: 4; fill: rgb(3,82,82); fill-rule: nonzero; opacity: 1;" transform="matrix(1.27159 0 0 1.271581 599.999881 599.999874) matrix(1 0 0 1 0 0)  translate(-510.675, -530.77)" d="M 548.25 241.23 L 548.77 241.39 L 549.79 242.05 L 550.30 242.44 L 551.37 243.65 L 551.91 244.34 L 553.11 246.25 L 553.73 247.30 L 555.12 250.03 L 555.85 251.51 L 557.53 255.20 L 557.97 256.19 L 558.92 258.37 L 559.41 259.49 L 560.45 261.96 L 560.99 263.23 L 562.14 265.99 L 564.00 270.50 L 564.71 272.22 L 566.26 275.99 L 567.06 277.92 L 568.76 282.02 L 570.48 286.18 L 574.12 294.91 L 575.93 299.26 L 579.42 307.60 L 580.26 309.61 L 581.85 313.37 L 584.01 318.50 L 585.35 321.66 L 588.33 328.69 L 589.83 332.25 L 592.87 339.44 L 593.61 341.21 L 595.06 344.63 L 595.76 346.31 L 597.10 349.47 L 597.75 351.01 L 598.93 353.82 L 600.47 357.50 L 600.94 358.60 L 602.07 361.31 L 602.67 362.73 L 604.05 366.00 L 604.77 367.69 L 606.33 371.40 L 607.13 373.30 L 608.83 377.32 L 610.55 381.40 L 614.18 389.98 L 619.48 402.50 L 620.33 404.49 L 622.12 408.72 L 623.03 410.87 L 624.90 415.30 L 626.79 419.76 L 630.58 428.71 L 631.51 430.91 L 633.30 435.15 L 634.18 437.23 L 635.83 441.14 L 636.64 443.04 L 638.10 446.49 L 640.00 451.00 L 642.26 456.36 L 647.07 467.71 L 647.64 469.05 L 648.71 471.58 L 649.23 472.81 L 650.20 475.08 L 650.66 476.17 L 651.48 478.09 L 652.51 480.50 L 652.80 481.19 L 653.53 482.89 L 653.91 483.78 L 654.78 485.84 L 655.23 486.91 L 656.22 489.25 L 656.72 490.45 L 657.80 493.00 L 658.88 495.58 L 661.17 501.03 L 664.51 509.00 L 665.57 511.54 L 667.72 516.70 L 668.79 519.24 L 670.78 523.97 L 671.26 525.11 L 672.14 527.20 L 672.57 528.21 L 673.33 530.02 L 673.70 530.87 L 674.31 532.32 L 675.03 534.00 L 675.22 534.45 L 675.70 535.55 L 675.94 536.13 L 676.51 537.47 L 677.10 538.86 L 678.47 542.12 L 682.79 552.50 L 683.13 553.32 L 684.08 555.60 L 684.59 556.84 L 685.84 559.84 L 686.50 561.42 L 688.00 565.02 L 688.78 566.89 L 690.48 570.96 L 691.35 573.05 L 693.19 577.47 L 694.13 579.71 L 696.07 584.35 L 701.99 598.50 L 703.95 603.17 L 708.11 613.12 L 710.19 618.10 L 714.24 627.80 L 715.23 630.16 L 717.09 634.63 L 718.00 636.81 L 719.68 640.83 L 720.48 642.77 L 721.91 646.19 L 723.70 650.50 L 724.73 652.98 L 727.02 658.48 L 728.18 661.26 L 730.53 666.88 L 731.69 669.65 L 733.82 674.73 L 734.32 675.93 L 735.24 678.12 L 736.46 681.00 L 737.30 682.98 L 739.11 687.26 L 740.03 689.44 L 741.99 694.08 L 743.98 698.80 L 748.26 708.95 L 750.42 714.09 L 754.84 724.59 L 761.31 740.00 L 765.33 749.56 L 773.21 768.35 L 777.12 777.66 L 784.70 795.74 L 786.57 800.20 L 790.24 808.95 L 792.06 813.29 L 795.61 821.76 L 797.38 825.96 L 800.80 834.13 L 805.78 846.00 L 806.74 848.30 L 808.82 853.25 L 809.87 855.76 L 812.07 861.01 L 814.29 866.31 L 818.83 877.12 L 819.95 879.79 L 822.12 884.99 L 823.20 887.55 L 825.23 892.40 L 826.23 894.77 L 828.05 899.12 L 830.48 904.91 L 831.41 907.12 L 833.06 911.11 L 833.85 913.04 L 835.24 916.48 L 835.90 918.13 L 837.04 921.03 L 837.57 922.42 L 838.45 924.80 L 838.86 925.93 L 839.50 927.82 L 839.79 928.70 L 840.19 930.11 L 840.37 930.76 L 840.54 931.71 L 840.55 932.64 L 840.39 933.28 L 839.96 934.35 L 839.70 934.84 L 838.86 935.65 L 838.37 936.02 L 836.85 936.59 L 836.42 936.72 L 835.38 936.95 L 834.83 937.05 L 833.53 937.23 L 832.84 937.32 L 831.24 937.46 L 830.40 937.52 L 828.47 937.62 L 827.46 937.67 L 825.17 937.73 L 823.97 937.76 L 821.28 937.80 L 819.88 937.82 L 816.75 937.84 L 815.13 937.84 L 811.53 937.83 L 809.67 937.83 L 805.58 937.81 L 798.83 937.76 L 763.61 937.50 L 756.42 920.50 L 755.93 919.33 L 754.76 916.57 L 754.16 915.14 L 752.80 911.93 L 752.11 910.28 L 750.61 906.73 L 749.85 904.92 L 748.26 901.15 L 746.65 897.34 L 743.37 889.55 L 738.72 878.50 L 738.00 876.78 L 736.42 873.01 L 735.60 871.08 L 733.88 866.98 L 732.13 862.82 L 728.46 854.09 L 726.63 849.74 L 723.12 841.40 L 722.27 839.39 L 720.69 835.63 L 718.53 830.50 L 716.90 826.62 L 713.89 819.47 L 712.42 815.99 L 709.73 809.59 L 708.42 806.48 L 706.03 800.79 L 704.87 798.04 L 702.76 793.02 L 701.74 790.59 L 699.90 786.21 L 699.01 784.09 L 697.42 780.28 L 696.65 778.45 L 695.29 775.19 L 694.64 773.62 L 693.48 770.86 L 692.93 769.54 L 691.98 767.23 L 691.52 766.13 L 690.74 764.24 L 690.37 763.34 L 689.75 761.81 L 689.46 761.09 L 688.97 759.90 L 688.75 759.33 L 688.39 758.42 L 688.22 758.00 L 687.97 757.32 L 687.52 756.00 L 687.46 755.82 L 687.25 755.22 L 687.13 754.88 L 686.79 753.98 L 686.60 753.49 L 686.14 752.31 L 685.89 751.69 L 685.32 750.26 L 684.72 748.77 L 683.23 745.13 L 682.44 743.23 L 680.64 738.91 L 679.71 736.69 L 677.69 731.89 L 676.66 729.44 L 674.49 724.36 L 667.87 709.00 L 667.06 707.14 L 665.58 703.69 L 664.88 702.03 L 663.71 699.20 L 663.45 698.55 L 662.99 697.42 L 662.78 696.89 L 662.45 696.02 L 662.30 695.62 L 662.11 695.06 L 661.99 694.61 L 661.99 694.55 L 661.86 694.13 L 661.78 693.88 L 661.49 693.11 L 661.33 692.69 L 660.90 691.61 L 660.67 691.04 L 660.12 689.69 L 659.54 688.28 L 658.09 684.85 L 655.62 679.11 L 654.59 676.77 L 652.65 672.30 L 651.69 670.10 L 649.88 665.92 L 649.00 663.88 L 647.34 660.02 L 646.53 658.14 L 645.03 654.62 L 644.30 652.90 L 642.95 649.74 L 642.31 648.20 L 641.14 645.40 L 640.57 644.06 L 639.58 641.65 L 638.31 638.50 L 638.14 638.09 L 637.71 637.04 L 637.49 636.48 L 636.95 635.18 L 636.39 633.83 L 635.04 630.59 L 630.57 620.00 L 629.53 617.56 L 627.59 613.00 L 626.64 610.78 L 624.88 606.66 L 624.03 604.65 L 622.46 600.95 L 621.69 599.16 L 620.30 595.87 L 619.62 594.28 L 618.41 591.40 L 617.82 590.01 L 616.77 587.52 L 616.27 586.33 L 615.39 584.23 L 614.25 581.50 L 614.08 581.09 L 613.63 580.02 L 613.39 579.44 L 612.82 578.09 L 612.23 576.68 L 610.77 573.25 L 605.88 561.85 L 605.07 559.97 L 603.60 556.48 L 602.90 554.81 L 601.73 551.96 L 601.46 551.31 L 601.01 550.17 L 600.80 549.63 L 600.46 548.76 L 600.31 548.37 L 600.12 547.81 L 600.00 547.36 L 600.00 547.30 L 599.88 546.92 L 599.80 546.68 L 599.54 545.97 L 599.39 545.57 L 598.99 544.58 L 598.78 544.04 L 598.27 542.80 L 597.74 541.50 L 596.40 538.32 L 594.11 533.01 L 593.70 532.08 L 592.79 529.99 L 592.32 528.91 L 591.30 526.57 L 590.26 524.18 L 588.01 519.01 L 586.87 516.42 L 584.64 511.29 L 581.61 504.34 L 580.70 502.25 L 579.04 498.38 L 578.25 496.52 L 576.94 493.37 L 576.64 492.64 L 576.13 491.39 L 575.89 490.79 L 575.52 489.83 L 575.35 489.40 L 575.13 488.78 L 575.00 488.30 L 575.00 488.24 L 574.88 487.86 L 574.80 487.63 L 574.54 486.94 L 574.39 486.56 L 574.00 485.59 L 573.78 485.08 L 573.28 483.87 L 572.75 482.62 L 571.42 479.56 L 569.14 474.46 L 568.34 472.68 L 566.81 469.23 L 566.07 467.56 L 564.78 464.57 L 564.19 463.17 L 563.29 460.99 L 563.10 460.51 L 562.81 459.77 L 562.54 459.00 L 562.49 458.83 L 562.26 458.20 L 562.13 457.85 L 561.75 456.89 L 561.55 456.37 L 561.04 455.12 L 560.78 454.46 L 560.16 452.97 L 559.53 451.43 L 558.00 447.83 L 555.50 442.00 L 554.63 440.01 L 553.00 436.23 L 552.22 434.41 L 550.88 431.25 L 550.57 430.51 L 550.02 429.21 L 549.77 428.60 L 549.35 427.57 L 549.15 427.10 L 548.87 426.40 L 548.63 425.75 L 548.48 425.28 L 547.96 424.60 L 547.68 424.31 L 547.09 424.05 L 546.79 423.97 L 546.32 424.17 L 546.00 425.06 L 546.00 425.13 L 545.91 425.48 L 545.85 425.68 L 545.65 426.27 L 545.43 426.91 L 544.70 428.80 L 544.30 429.82 L 543.29 432.26 L 541.57 436.31 L 541.03 437.54 L 539.89 440.19 L 539.31 441.56 L 538.05 444.50 L 537.41 446.01 L 536.04 449.28 L 535.33 450.96 L 533.82 454.59 L 533.04 456.45 L 531.37 460.46 L 530.52 462.52 L 528.69 466.96 L 527.75 469.23 L 525.74 474.12 L 522.51 482.00 L 522.22 482.72 L 521.49 484.49 L 521.11 485.42 L 520.24 487.54 L 519.33 489.73 L 517.22 494.85 L 516.13 497.48 L 513.84 502.99 L 510.51 511.00 L 509.99 512.27 L 508.83 515.05 L 508.24 516.48 L 506.99 519.49 L 505.72 522.53 L 503.08 528.91 L 501.77 532.08 L 499.27 538.13 L 498.67 539.59 L 497.55 542.31 L 496.03 546.00 L 495.09 548.27 L 493.27 552.68 L 492.38 554.83 L 490.77 558.68 L 490.39 559.59 L 489.71 561.22 L 489.38 562.00 L 488.82 563.34 L 488.55 563.97 L 488.13 564.96 L 487.67 566.00 L 487.48 566.43 L 486.90 567.77 L 486.58 568.52 L 485.72 570.55 L 485.25 571.66 L 484.08 574.48 L 483.44 576.00 L 481.91 579.69 L 481.50 580.68 L 480.61 582.82 L 480.16 583.92 L 479.17 586.32 L 478.66 587.55 L 477.56 590.20 L 477.00 591.56 L 475.79 594.49 L 475.18 595.99 L 473.85 599.20 L 473.18 600.84 L 471.74 604.34 L 471.00 606.13 L 469.43 609.94 L 466.94 616.00 L 466.50 617.06 L 465.51 619.46 L 465.00 620.70 L 463.87 623.43 L 463.29 624.84 L 462.04 627.86 L 461.40 629.41 L 460.04 632.70 L 458.66 636.04 L 455.63 643.35 L 454.08 647.09 L 450.81 654.98 L 447.50 662.95 L 440.66 679.39 L 438.98 683.45 L 435.70 691.32 L 431.04 702.50 L 430.36 704.12 L 428.72 708.06 L 427.85 710.14 L 425.86 714.92 L 424.83 717.40 L 422.54 722.90 L 421.36 725.73 L 418.82 731.84 L 417.53 734.96 L 414.78 741.56 L 413.39 744.91 L 410.49 751.89 L 407.56 758.95 L 401.44 773.70 L 398.36 781.11 L 392.23 795.89 L 390.71 799.54 L 387.74 806.69 L 386.27 810.23 L 383.43 817.08 L 382.03 820.45 L 379.37 826.88 L 378.07 830.02 L 375.63 835.91 L 374.44 838.77 L 372.27 844.01 L 369.38 851.00 L 368.94 852.07 L 367.79 854.84 L 367.17 856.32 L 365.72 859.82 L 364.96 861.65 L 363.26 865.73 L 362.39 867.84 L 360.51 872.38 L 359.54 874.69 L 357.53 879.53 L 356.51 881.98 L 354.43 886.99 L 348.18 902.00 L 333.39 937.50 L 296.35 937.76 L 294.05 937.78 L 289.88 937.81 L 287.87 937.82 L 284.22 937.84 L 282.45 937.85 L 279.29 937.87 L 277.76 937.87 L 275.04 937.88 L 273.73 937.88 L 271.41 937.87 L 270.30 937.86 L 268.35 937.84 L 267.42 937.83 L 265.81 937.79 L 265.04 937.77 L 263.71 937.71 L 262.46 937.65 L 260.67 937.47 L 259.86 937.37 L 258.76 937.10 L 258.26 936.95 L 257.53 936.57 L 257.19 936.36 L 256.54 935.86 L 256.09 935.50 L 255.38 934.76 L 255.06 934.38 L 254.62 933.52 L 254.44 933.07 L 254.30 931.99 L 254.26 931.41 L 254.42 930.03 L 254.54 929.28 L 255.02 927.49 L 255.30 926.53 L 256.12 924.23 L 256.57 923.01 L 257.74 920.12 L 259.90 915.00 L 261.10 912.23 L 263.27 907.19 L 264.32 904.75 L 266.22 900.31 L 267.14 898.16 L 268.79 894.27 L 269.59 892.39 L 271.03 888.99 L 271.72 887.36 L 272.95 884.41 L 273.54 882.99 L 274.59 880.43 L 275.10 879.20 L 275.99 876.99 L 277.18 874.00 L 277.59 872.97 L 278.67 870.30 L 279.24 868.89 L 280.53 865.77 L 281.19 864.18 L 282.53 860.97 L 284.44 856.50 L 285.04 855.12 L 286.41 851.91 L 287.12 850.25 L 288.59 846.79 L 289.32 845.07 L 290.71 841.78 L 292.51 837.50 L 292.76 836.88 L 293.39 835.38 L 293.72 834.58 L 294.47 832.78 L 295.25 830.92 L 297.06 826.59 L 297.99 824.37 L 299.93 819.73 L 302.75 813.00 L 303.20 811.93 L 304.19 809.57 L 304.70 808.36 L 305.78 805.76 L 306.89 803.12 L 309.24 797.50 L 310.41 794.69 L 312.69 789.24 L 313.24 787.92 L 314.28 785.43 L 315.71 782.00 L 316.60 779.87 L 318.60 775.07 L 319.62 772.64 L 321.69 767.67 L 322.71 765.23 L 324.61 760.69 L 325.06 759.61 L 325.88 757.63 L 326.98 755.00 L 327.31 754.21 L 328.08 752.37 L 328.48 751.42 L 329.36 749.31 L 330.26 747.15 L 332.27 742.32 L 333.29 739.88 L 335.36 734.93 L 338.25 728.00 L 339.14 725.87 L 340.97 721.51 L 341.87 719.35 L 343.57 715.29 L 344.38 713.34 L 345.76 710.05 L 346.08 709.30 L 346.61 708.02 L 347.26 706.50 L 348.83 702.76 L 351.81 695.68 L 353.28 692.20 L 356.06 685.59 L 357.43 682.34 L 360.03 676.14 L 361.31 673.09 L 363.76 667.25 L 364.96 664.37 L 367.28 658.83 L 368.42 656.09 L 370.63 650.79 L 376.98 635.50 L 377.38 634.54 L 378.29 632.36 L 378.75 631.24 L 379.77 628.80 L 380.80 626.32 L 383.05 620.91 L 384.19 618.19 L 386.43 612.82 L 389.50 605.50 L 390.42 603.30 L 392.48 598.38 L 393.53 595.88 L 395.64 590.82 L 396.68 588.33 L 398.59 583.73 L 399.05 582.63 L 399.88 580.64 L 400.97 578.00 L 402.27 574.84 L 405.12 568.12 L 405.80 566.53 L 407.01 563.74 L 407.29 563.09 L 407.79 561.94 L 408.44 560.50 L 408.81 559.67 L 409.69 557.66 L 410.14 556.62 L 411.08 554.37 L 411.55 553.24 L 412.44 551.03 L 413.61 548.06 L 413.94 547.17 L 414.90 544.76 L 415.41 543.48 L 416.61 540.55 L 420.39 531.56 L 420.69 530.86 L 421.38 529.24 L 421.74 528.39 L 422.55 526.51 L 423.37 524.57 L 425.23 520.19 L 426.17 517.97 L 428.08 513.42 L 430.78 507.00 L 431.61 505.01 L 433.50 500.50 L 434.47 498.21 L 436.44 493.53 L 437.41 491.22 L 439.23 486.92 L 439.67 485.89 L 440.47 484.01 L 441.53 481.50 L 441.86 480.74 L 442.58 479.02 L 442.96 478.14 L 443.77 476.20 L 444.60 474.22 L 446.39 469.90 L 447.29 467.72 L 449.07 463.39 L 451.48 457.47 L 452.20 455.67 L 453.65 452.14 L 454.37 450.41 L 455.70 447.27 L 456.33 445.78 L 457.38 443.39 L 457.62 442.86 L 458.01 442.00 L 458.47 441.05 L 458.71 440.59 L 459.29 439.34 L 459.59 438.68 L 460.22 437.17 L 461.98 432.59 L 462.10 432.24 L 462.43 431.33 L 462.61 430.85 L 463.05 429.70 L 463.52 428.51 L 464.69 425.62 L 468.73 416.00 L 469.42 414.42 L 470.97 410.82 L 471.75 408.99 L 473.36 405.23 L 474.15 403.38 L 475.62 399.90 L 477.46 395.50 L 477.71 394.88 L 478.34 393.38 L 478.67 392.58 L 479.42 390.78 L 480.19 388.92 L 482.00 384.59 L 482.93 382.37 L 484.88 377.73 L 487.71 371.00 L 488.60 368.87 L 490.61 364.07 L 491.63 361.64 L 493.70 356.68 L 494.72 354.23 L 496.61 349.69 L 497.06 348.61 L 497.88 346.63 L 498.96 344.00 L 499.61 342.42 L 501.07 338.90 L 501.82 337.12 L 503.34 333.53 L 504.08 331.76 L 505.48 328.51 L 507.23 324.50 L 507.71 323.40 L 508.89 320.68 L 509.51 319.27 L 510.82 316.21 L 511.48 314.67 L 512.77 311.63 L 514.50 307.50 L 514.76 306.88 L 515.38 305.38 L 515.71 304.58 L 516.46 302.78 L 517.24 300.92 L 519.05 296.59 L 519.98 294.37 L 521.92 289.73 L 524.73 283.00 L 525.63 280.87 L 527.64 276.03 L 528.67 273.57 L 530.76 268.53 L 531.79 266.04 L 533.71 261.38 L 534.17 260.27 L 535.01 258.23 L 536.12 255.50 L 536.75 253.96 L 537.85 251.34 L 538.39 250.10 L 539.33 248.04 L 539.79 247.07 L 540.62 245.50 L 541.03 244.77 L 541.79 243.63 L 542.17 243.11 L 542.91 242.34 L 543.29 242.00 L 544.05 241.53 L 546.64 241.00 L 547.20 241.00 M 143.23 421.07 L 143.45 421.11 L 144.06 421.26 L 144.72 421.42 L 146.64 421.94 L 147.67 422.22 L 150.08 422.91 L 151.33 423.27 L 153.95 424.05 L 155.26 424.44 L 157.80 425.21 L 159.03 425.59 L 161.19 426.28 L 162.19 426.60 L 163.68 427.10 L 163.99 427.22 L 164.44 427.39 L 164.82 427.57 L 164.84 427.58 L 164.78 427.97 L 164.73 428.21 L 164.55 429.03 L 164.44 429.48 L 164.14 430.67 L 163.98 431.31 L 163.58 432.83 L 163.37 433.62 L 162.88 435.43 L 162.63 436.36 L 162.07 438.39 L 160.17 445.15 L 158.83 449.82 L 156.44 459.01 L 155.29 463.58 L 153.25 472.63 L 152.28 477.14 L 150.60 486.13 L 149.80 490.62 L 148.46 499.60 L 147.83 504.11 L 146.82 513.17 L 146.36 517.72 L 145.67 526.94 L 145.36 531.57 L 144.98 541.01 L 144.75 555.50 L 144.75 561.54 L 145.14 573.50 L 145.39 579.45 L 146.30 591.24 L 146.81 597.11 L 148.23 608.72 L 149.00 614.50 L 150.93 625.92 L 151.96 631.61 L 154.39 642.83 L 155.68 648.41 L 158.61 659.43 L 160.15 664.91 L 163.58 675.70 L 165.37 681.08 L 169.30 691.65 L 171.33 696.90 L 175.76 707.24 L 178.03 712.38 L 182.95 722.47 L 185.47 727.49 L 190.87 737.33 L 193.63 742.22 L 199.52 751.79 L 202.52 756.55 L 208.88 765.85 L 212.12 770.47 L 218.96 779.49 L 222.44 783.97 L 229.75 792.70 L 241.24 805.47 L 250.65 815.43 L 245.57 826.71 L 244.88 828.26 L 243.52 831.09 L 242.86 832.44 L 241.68 834.68 L 241.13 835.70 L 240.26 837.10 L 240.07 837.39 L 239.77 837.76 L 239.46 838.00 L 239.31 838.00 L 238.70 837.64 L 238.35 837.41 L 237.42 836.67 L 236.92 836.26 L 235.78 835.23 L 233.97 833.47 L 233.36 832.85 L 232.16 831.74 L 231.57 831.21 L 230.50 830.36 L 229.99 829.97 L 229.18 829.47 L 228.38 829.22 L 228.30 829.24 L 227.77 829.62 L 227.44 829.87 L 226.45 830.67 L 225.91 831.12 L 224.53 832.29 L 223.79 832.92 L 222.07 834.41 L 221.17 835.20 L 219.16 836.96 L 218.12 837.88 L 215.87 839.88 L 208.51 846.50 L 205.94 848.84 L 201.20 853.12 L 200.06 854.14 L 197.96 856.03 L 196.94 856.94 L 195.10 858.58 L 194.23 859.36 L 192.72 860.70 L 192.01 861.32 L 190.87 862.31 L 190.36 862.76 L 189.66 863.35 L 189.14 863.75 L 189.05 863.79 L 188.49 863.40 L 188.16 863.15 L 187.21 862.26 L 186.70 861.77 L 185.48 860.52 L 184.85 859.85 L 183.49 858.34 L 182.81 857.56 L 181.01 855.54 L 180.07 854.48 L 177.96 852.12 L 176.88 850.92 L 174.71 848.50 L 171.66 845.13 L 169.26 842.48 L 164.22 836.73 L 162.98 835.30 L 160.58 832.50 L 159.41 831.12 L 157.23 828.52 L 156.18 827.26 L 154.33 825.00 L 153.46 823.92 L 152.06 822.14 L 151.42 821.31 L 150.58 820.14 L 150.41 819.89 L 150.19 819.53 L 150.07 819.22 L 150.07 819.12 L 150.54 818.55 L 150.84 818.22 L 151.78 817.28 L 152.30 816.78 L 153.60 815.58 L 155.82 813.64 L 156.21 813.31 L 157.23 812.43 L 157.78 811.96 L 159.09 810.84 L 159.77 810.26 L 161.30 808.95 L 162.09 808.27 L 163.80 806.81 L 165.53 805.33 L 169.31 802.09 L 175.00 797.22 L 176.86 795.63 L 180.30 792.68 L 181.96 791.27 L 184.76 788.87 L 185.41 788.31 L 186.53 787.35 L 187.05 786.90 L 187.91 786.17 L 188.30 785.84 L 188.84 785.38 L 189.27 785.01 L 189.38 784.92 L 189.32 784.41 L 189.25 784.10 L 188.87 783.25 L 188.65 782.79 L 188.02 781.70 L 186.83 779.93 L 186.51 779.49 L 185.64 778.22 L 185.17 777.53 L 184.02 775.79 L 183.41 774.86 L 182.00 772.69 L 181.27 771.55 L 179.62 768.97 L 178.77 767.63 L 176.91 764.68 L 175.96 763.17 L 173.91 759.89 L 172.86 758.22 L 170.64 754.65 L 167.15 749.00 L 167.06 748.84 L 166.68 748.68 L 166.46 748.63 L 165.76 748.70 L 165.36 748.77 L 164.23 749.12 L 163.61 749.33 L 161.97 749.99 L 161.07 750.36 L 158.81 751.38 L 157.60 751.93 L 154.64 753.34 L 153.05 754.10 L 149.28 755.95 L 142.62 759.24 L 119.01 770.99 L 114.29 761.74 L 113.72 760.63 L 112.46 758.09 L 111.81 756.76 L 110.40 753.83 L 109.68 752.33 L 108.16 749.08 L 107.38 747.42 L 105.77 743.92 L 104.14 740.38 L 100.76 732.80 L 95.72 721.25 L 95.23 720.12 L 94.48 718.15 L 94.14 717.22 L 93.69 715.69 L 93.50 714.99 L 93.37 713.97 L 93.55 713.09 L 93.67 712.98 L 94.35 712.60 L 94.77 712.38 L 96.09 711.76 L 96.83 711.42 L 98.82 710.55 L 99.90 710.08 L 102.59 708.95 L 104.03 708.34 L 107.47 706.93 L 109.28 706.19 L 113.50 704.48 L 115.70 703.58 L 120.73 701.56 L 129.22 698.17 L 130.83 697.53 L 133.81 696.27 L 135.24 695.65 L 137.64 694.53 L 138.74 694.01 L 140.30 693.17 L 140.63 692.98 L 141.07 692.68 L 141.40 692.35 L 141.43 692.27 L 141.41 691.89 L 141.39 691.66 L 141.26 691.01 L 141.12 690.30 L 140.55 688.21 L 140.23 687.07 L 139.37 684.35 L 137.86 679.85 L 137.31 678.29 L 136.11 674.66 L 135.51 672.81 L 134.33 668.93 L 133.75 667.01 L 132.70 663.35 L 131.46 658.61 L 131.13 657.25 L 130.50 654.75 L 130.19 653.55 L 129.66 651.53 L 129.41 650.60 L 129.03 649.29 L 128.70 648.37 L 128.68 648.34 L 128.12 648.40 L 127.77 648.44 L 126.60 648.62 L 125.95 648.73 L 124.24 649.02 L 123.32 649.18 L 121.14 649.58 L 120.00 649.79 L 117.42 650.28 L 116.08 650.53 L 113.16 651.09 L 103.48 653.00 L 100.06 653.69 L 93.73 654.94 L 92.21 655.24 L 89.39 655.79 L 88.02 656.06 L 85.56 656.53 L 84.37 656.76 L 82.33 657.14 L 81.37 657.32 L 79.82 657.61 L 79.12 657.73 L 78.14 657.90 L 77.39 658.00 L 77.26 658.00 L 76.95 657.63 L 76.79 657.38 L 76.43 656.55 L 76.24 656.08 L 75.84 654.84 L 75.63 654.17 L 75.19 652.57 L 74.97 651.72 L 74.50 649.79 L 74.26 648.79 L 73.77 646.58 L 73.28 644.31 L 72.28 639.13 L 71.77 636.46 L 70.80 630.75 L 70.32 627.87 L 69.45 621.99 L 69.03 619.06 L 68.32 613.37 L 67.52 605.44 L 66.86 597.38 L 92.18 593.66 L 95.66 593.15 L 102.07 592.22 L 103.60 592.00 L 106.43 591.59 L 107.80 591.40 L 110.27 591.04 L 111.44 590.88 L 113.47 590.59 L 114.41 590.46 L 115.92 590.25 L 116.61 590.16 L 117.53 590.04 L 118.19 589.97 L 118.24 589.97 L 118.32 589.49 L 118.36 589.18 L 118.42 588.11 L 118.45 587.51 L 118.50 585.92 L 118.52 585.07 L 118.55 583.02 L 118.56 581.95 L 118.57 579.51 L 118.58 578.25 L 118.57 575.48 L 118.46 566.27 L 118.04 542.54 L 100.77 540.85 L 96.02 540.39 L 86.08 539.41 L 83.74 539.19 L 79.66 538.79 L 78.72 538.69 L 77.06 538.53 L 75.00 538.33 L 66.50 537.50 L 66.59 533.00 L 66.65 530.24 L 66.83 525.18 L 66.93 522.70 L 67.22 518.01 L 68.59 504.00 L 68.77 502.55 L 69.11 499.87 L 69.27 498.56 L 69.58 496.14 L 69.88 493.78 L 70.41 489.82 L 70.67 487.95 L 71.11 484.87 L 71.32 483.44 L 71.70 481.16 L 71.89 480.10 L 72.22 478.50 L 72.38 477.78 L 72.68 476.75 L 72.83 476.30 L 73.13 475.75 L 73.58 475.33 L 73.67 475.30 L 74.28 475.30 L 74.65 475.31 L 75.79 475.40 L 76.42 475.45 L 78.02 475.61 L 78.88 475.70 L 80.88 475.93 L 81.93 476.05 L 84.27 476.34 L 85.48 476.49 L 88.09 476.84 L 96.67 478.04 L 99.67 478.48 L 105.42 479.29 L 106.81 479.49 L 109.45 479.85 L 110.73 480.02 L 113.11 480.34 L 114.25 480.49 L 116.29 480.75 L 117.26 480.87 L 118.90 481.07 L 119.66 481.15 L 120.83 481.28 L 121.97 481.37 L 125.44 481.50 L 126.78 475.00 L 127.24 472.77 L 128.08 468.75 L 128.50 466.80 L 129.28 463.25 L 129.66 461.52 L 130.41 458.32 L 130.78 456.75 L 131.52 453.77 L 132.27 450.82 L 133.87 445.09 L 134.29 443.63 L 135.21 440.59 L 136.71 435.75 L 137.10 434.50 L 137.83 432.24 L 138.19 431.15 L 138.85 429.22 L 139.17 428.29 L 139.76 426.68 L 140.04 425.91 L 140.56 424.62 L 140.81 424.01 L 141.27 423.02 L 141.48 422.57 L 141.87 421.89 L 142.05 421.60 L 142.38 421.22 L 142.79 421.00 L 142.87 421.00 M 172.62 430.07 L 172.82 430.12 L 173.45 430.28 L 173.81 430.38 L 174.72 430.63 L 175.21 430.77 L 176.39 431.11 L 177.63 431.47 L 180.89 432.44 L 182.63 432.96 L 186.82 434.23 L 189.02 434.90 L 194.04 436.44 L 196.65 437.24 L 202.43 439.03 L 205.41 439.95 L 211.85 441.96 L 222.16 445.18 L 234.83 449.16 L 232.36 456.33 L 231.97 457.48 L 231.11 460.21 L 230.67 461.64 L 229.76 464.82 L 229.31 466.46 L 228.37 469.99 L 227.90 471.79 L 226.96 475.56 L 226.02 479.36 L 224.26 487.21 L 222.01 498.46 L 221.80 499.62 L 221.31 502.65 L 221.06 504.27 L 220.52 508.00 L 219.98 511.85 L 218.90 520.34 L 218.64 522.42 L 218.17 526.41 L 217.94 528.35 L 217.57 531.81 L 217.40 533.44 L 217.17 536.07 L 217.12 536.66 L 217.05 537.64 L 217.01 538.75 L 217.01 538.87 L 216.82 539.08 L 216.69 539.17 L 216.21 539.35 L 215.93 539.43 L 215.14 539.56 L 214.70 539.63 L 213.55 539.73 L 212.93 539.78 L 211.39 539.85 L 210.57 539.89 L 208.62 539.94 L 207.58 539.96 L 205.17 539.99 L 201.00 540.00 L 185.00 540.00 L 185.00 559.40 L 185.30 569.39 L 185.51 574.37 L 186.21 584.23 L 186.62 589.15 L 187.72 598.87 L 188.33 603.72 L 189.83 613.30 L 190.64 618.07 L 192.54 627.51 L 193.55 632.21 L 195.85 641.50 L 197.05 646.13 L 199.75 655.26 L 201.15 659.81 L 204.24 668.79 L 205.83 673.25 L 209.32 682.07 L 211.11 686.45 L 214.98 695.10 L 216.97 699.40 L 221.23 707.88 L 223.41 712.09 L 228.06 720.39 L 230.43 724.52 L 235.47 732.64 L 238.04 736.68 L 243.46 744.61 L 246.22 748.55 L 252.02 756.30 L 261.15 767.70 L 268.02 775.90 L 262.63 788.20 L 261.74 790.23 L 260.21 793.71 L 259.48 795.36 L 258.24 798.13 L 257.65 799.44 L 256.66 801.59 L 256.20 802.59 L 255.43 804.18 L 255.07 804.91 L 254.49 806.01 L 254.22 806.51 L 253.80 807.19 L 253.60 807.48 L 253.29 807.81 L 252.91 808.00 L 252.86 808.00 L 252.60 807.81 L 252.44 807.69 L 251.97 807.27 L 251.46 806.80 L 249.94 805.28 L 249.11 804.44 L 247.11 802.34 L 246.07 801.24 L 243.79 798.75 L 239.61 794.15 L 231.80 784.99 L 227.98 780.40 L 220.85 771.19 L 217.36 766.56 L 210.83 757.18 L 207.64 752.46 L 201.65 742.79 L 198.71 737.91 L 193.18 727.84 L 190.47 722.75 L 185.34 712.16 L 182.81 706.79 L 178.01 695.56 L 171.08 677.88 L 170.94 677.50 L 170.61 676.55 L 170.44 676.04 L 170.05 674.84 L 169.65 673.58 L 168.71 670.45 L 168.21 668.81 L 167.13 665.07 L 166.58 663.15 L 165.43 659.03 L 164.27 654.86 L 162.00 646.31 L 161.46 644.23 L 160.46 640.31 L 159.17 635.00 L 158.80 633.42 L 158.07 629.91 L 157.71 628.09 L 157.02 624.18 L 156.68 622.17 L 156.02 617.94 L 155.71 615.79 L 155.11 611.32 L 154.53 606.80 L 153.57 597.42 L 152.53 583.50 L 152.45 582.12 L 152.27 578.95 L 152.18 577.32 L 151.98 573.94 L 151.89 572.26 L 151.70 569.09 L 151.45 565.00 L 151.39 564.14 L 151.32 562.16 L 151.29 561.13 L 151.27 558.83 L 151.26 556.47 L 151.37 550.97 L 151.44 548.12 L 151.71 541.88 L 151.86 538.69 L 152.26 532.01 L 152.70 525.26 L 153.90 511.75 L 154.22 508.46 L 154.92 502.27 L 156.04 493.85 L 156.21 492.71 L 156.64 490.14 L 156.88 488.81 L 157.43 485.90 L 158.01 482.92 L 159.44 476.23 L 160.94 469.39 L 164.43 455.13 L 165.30 451.71 L 166.98 445.42 L 167.39 443.93 L 168.17 441.16 L 168.56 439.82 L 169.27 437.43 L 169.62 436.29 L 170.26 434.34 L 170.56 433.43 L 171.09 432.00 L 171.34 431.36 L 171.76 430.52 L 172.22 430.00 L 172.28 430.00 M 476.75 537.01 L 470.50 537.02 L 461.56 558.76 L 457.56 568.46 L 454.70 575.39 L 453.28 578.81 L 450.50 585.56 L 449.25 588.57 L 448.03 591.51 L 447.48 592.84 L 446.41 595.40 L 445.96 596.50 L 439.30 612.50 L 424.09 612.78 L 408.88 613.05 L 407.56 616.28 L 407.15 617.27 L 406.75 618.25 L 406.50 618.87 L 405.95 620.20 L 405.62 620.99 L 404.95 622.63 L 404.57 623.55 L 402.97 627.45 L 402.06 629.64 L 400.20 634.16 L 399.24 636.50 L 397.69 640.25 L 396.58 642.97 L 395.99 644.40 L 393.56 650.32 L 392.31 653.35 L 389.82 659.42 L 388.66 662.25 L 387.52 665.04 L 386.99 666.34 L 385.95 668.87 L 385.49 670.00 L 382.42 677.51 L 380.17 683.00 L 379.04 685.77 L 376.79 691.25 L 375.76 693.76 L 374.75 696.22 L 374.28 697.35 L 373.39 699.54 L 372.99 700.50 L 367.22 714.54 L 363.33 724.03 L 361.31 728.97 L 357.19 739.04 L 354.99 744.42 L 352.77 749.88 L 351.61 752.72 L 349.26 758.48 L 348.03 761.50 L 344.48 770.19 L 342.02 776.18 L 340.83 779.05 L 339.66 781.89 L 339.10 783.23 L 338.01 785.86 L 337.51 787.06 L 336.53 789.39 L 336.10 790.42 L 335.28 792.37 L 334.94 793.17 L 333.02 797.81 L 331.90 800.62 L 331.45 801.80 L 330.64 803.98 L 330.39 804.73 L 330.17 805.42 L 330.10 805.66 L 330.00 806.08 L 330.00 806.17 L 330.18 806.56 L 330.49 806.71 L 331.26 806.97 L 331.81 807.05 L 333.00 807.19 L 333.69 807.21 L 335.13 807.23 L 335.89 807.20 L 338.97 806.98 L 340.23 806.72 L 341.42 806.43 L 341.86 806.26 L 342.63 805.88 L 342.80 805.66 L 343.04 805.24 L 343.29 804.73 L 343.46 804.36 L 343.83 803.55 L 344.06 803.03 L 344.55 801.93 L 344.83 801.27 L 345.43 799.87 L 345.78 799.07 L 346.49 797.39 L 346.89 796.45 L 347.71 794.49 L 348.16 793.41 L 349.09 791.18 L 349.60 789.96 L 350.63 787.46 L 351.19 786.11 L 352.33 783.34 L 352.94 781.86 L 354.18 778.84 L 354.84 777.23 L 356.19 773.95 L 356.89 772.21 L 359.82 765.03 L 361.43 761.07 L 364.74 752.92 L 366.53 748.50 L 367.73 745.53 L 368.64 743.29 L 369.14 742.07 L 371.23 736.94 L 372.35 734.18 L 374.64 728.57 L 375.77 725.82 L 377.98 720.41 L 378.97 718.00 L 381.97 710.67 L 383.93 705.86 L 384.83 703.66 L 385.70 701.51 L 386.10 700.52 L 386.88 698.60 L 387.22 697.75 L 387.87 696.14 L 388.14 695.46 L 388.64 694.21 L 388.82 693.75 L 391.49 687.00 L 406.12 687.00 L 409.78 686.98 L 411.95 686.95 L 412.90 686.93 L 414.71 686.88 L 415.50 686.84 L 416.98 686.76 L 417.61 686.71 L 418.79 686.60 L 419.26 686.54 L 420.15 686.40 L 420.49 686.32 L 421.58 685.97 L 421.76 685.75 L 422.13 685.09 L 422.53 684.27 L 422.80 683.69 L 423.38 682.41 L 423.73 681.62 L 424.47 679.96 L 424.89 678.99 L 425.76 676.99 L 426.24 675.88 L 427.21 673.59 L 427.73 672.36 L 429.88 667.25 L 431.01 664.50 L 432.82 660.13 L 434.11 656.99 L 434.79 655.35 L 437.56 648.63 L 438.97 645.23 L 441.76 638.48 L 443.04 635.37 L 444.30 632.33 L 444.89 630.92 L 446.01 628.20 L 446.51 627.00 L 449.78 619.10 L 452.14 613.38 L 453.31 610.53 L 455.64 604.88 L 456.69 602.32 L 457.72 599.81 L 458.19 598.67 L 459.10 596.46 L 459.49 595.50 L 460.77 592.39 L 461.69 590.12 L 462.19 588.92 L 464.23 583.94 L 465.29 581.35 L 467.41 576.18 L 468.41 573.73 L 469.39 571.33 L 469.85 570.20 L 470.76 568.00 L 471.16 567.00 L 476.22 554.74 L 477.78 550.99 L 478.44 549.44 L 479.07 547.94 L 479.34 547.30 L 479.85 546.09 L 480.05 545.62 L 481.20 542.88 L 481.87 541.21 L 482.13 540.51 L 482.62 539.21 L 482.77 538.75 L 483.00 537.99 L 483.00 537.87 L 482.51 537.53 L 481.73 537.34 L 481.16 537.26 L 479.92 537.12 L 479.18 537.08 L 477.61 537.01 M 548.55 272.82 L 547.99 273.44 L 547.39 274.48 L 546.97 275.33 L 546.04 277.24 L 545.45 278.54 L 544.18 281.37 L 543.41 283.14 L 541.77 286.91 L 540.82 289.17 L 539.83 291.49 L 539.31 292.75 L 538.23 295.32 L 537.65 296.70 L 536.48 299.54 L 535.85 301.05 L 534.57 304.15 L 533.89 305.79 L 532.51 309.16 L 531.78 310.94 L 530.30 314.58 L 529.51 316.50 L 528.28 319.52 L 527.33 321.84 L 526.81 323.13 L 524.58 328.57 L 523.36 331.56 L 520.86 337.66 L 519.61 340.71 L 517.14 346.75 L 516.01 349.50 L 512.41 358.29 L 509.88 364.45 L 508.66 367.44 L 506.26 373.30 L 505.21 375.87 L 504.19 378.37 L 503.73 379.48 L 502.87 381.61 L 502.50 382.50 L 501.16 385.80 L 500.02 388.56 L 499.36 390.19 L 497.97 393.60 L 497.19 395.50 L 495.59 399.41 L 494.72 401.52 L 492.96 405.82 L 492.04 408.08 L 490.18 412.63 L 489.22 414.97 L 485.36 424.39 L 483.48 429.00 L 480.43 436.46 L 478.52 441.11 L 477.63 443.29 L 475.90 447.53 L 475.10 449.51 L 473.52 453.36 L 472.80 455.15 L 471.39 458.62 L 470.74 460.23 L 469.48 463.34 L 468.90 464.76 L 467.79 467.53 L 467.28 468.79 L 466.31 471.22 L 465.87 472.31 L 465.03 474.42 L 464.66 475.36 L 463.94 477.17 L 463.63 477.96 L 463.04 479.48 L 462.79 480.14 L 462.32 481.38 L 462.12 481.90 L 461.76 482.88 L 461.62 483.28 L 461.36 484.02 L 461.27 484.30 L 461.00 485.19 L 461.00 485.33 L 461.25 486.00 L 461.64 486.74 L 461.93 487.22 L 463.30 489.37 L 464.17 490.59 L 465.04 491.77 L 465.45 492.30 L 466.24 493.30 L 466.58 493.70 L 467.21 494.42 L 467.44 494.64 L 467.84 494.99 L 467.92 494.99 L 468.38 494.41 L 468.87 493.51 L 469.19 492.85 L 469.86 491.41 L 470.24 490.55 L 471.02 488.73 L 471.42 487.74 L 471.84 486.70 L 472.24 485.73 L 472.49 485.11 L 473.04 483.78 L 473.36 483.00 L 474.05 481.34 L 474.44 480.39 L 475.25 478.42 L 475.70 477.33 L 476.64 475.07 L 477.14 473.84 L 479.29 468.67 L 480.50 465.74 L 483.03 459.65 L 484.41 456.33 L 487.24 449.52 L 488.74 445.90 L 491.80 438.53 L 493.40 434.70 L 496.62 426.95 L 498.26 423.00 L 502.67 412.40 L 505.39 405.87 L 506.65 402.85 L 509.09 396.97 L 510.22 394.25 L 512.43 388.96 L 513.44 386.51 L 515.42 381.75 L 516.34 379.54 L 518.12 375.25 L 518.95 373.26 L 520.56 369.38 L 521.31 367.57 L 522.78 364.04 L 523.46 362.38 L 526.09 356.04 L 527.28 353.16 L 529.60 347.56 L 530.71 344.88 L 532.91 339.55 L 534.03 336.81 L 536.31 331.27 L 537.56 328.25 L 539.88 322.72 L 541.30 319.48 L 541.90 318.19 L 542.47 316.96 L 542.72 316.44 L 543.19 315.49 L 543.38 315.12 L 543.73 314.48 L 543.85 314.29 L 544.06 314.00 L 544.11 314.00 L 544.46 314.22 L 544.75 314.56 L 544.90 314.81 L 545.55 315.99 L 545.83 316.75 L 546.16 317.60 L 546.50 318.43 L 546.71 318.96 L 547.18 320.10 L 547.46 320.77 L 548.04 322.17 L 548.36 322.95 L 549.75 326.28 L 550.54 328.15 L 552.17 332.01 L 553.01 334.00 L 554.38 337.23 L 555.38 339.59 L 555.91 340.85 L 558.12 346.06 L 559.26 348.77 L 561.55 354.20 L 562.64 356.78 L 563.71 359.32 L 564.21 360.52 L 565.19 362.85 L 565.64 363.91 L 567.33 367.98 L 568.34 370.41 L 568.78 371.49 L 569.65 373.57 L 570.03 374.47 L 570.77 376.21 L 571.09 376.95 L 571.73 378.35 L 572.01 378.94 L 572.57 380.03 L 572.82 380.46 L 573.31 381.25 L 573.54 381.54 L 573.99 382.05 L 574.21 382.20 L 575.07 382.54 L 575.52 382.35 L 576.45 381.72 L 577.01 381.08 L 578.18 379.59 L 578.92 378.57 L 580.50 376.34 L 581.51 374.99 L 588.35 365.79 L 586.75 361.65 L 586.14 360.10 L 585.51 358.56 L 585.10 357.57 L 584.23 355.43 L 583.70 354.16 L 582.60 351.50 L 581.98 350.01 L 580.70 346.91 L 580.00 345.23 L 578.56 341.78 L 577.80 339.94 L 574.64 332.36 L 572.96 328.35 L 569.57 320.23 L 567.88 316.20 L 564.52 308.20 L 562.95 304.47 L 561.40 300.79 L 560.67 299.06 L 559.24 295.68 L 558.58 294.13 L 557.31 291.12 L 556.74 289.78 L 555.65 287.23 L 555.19 286.15 L 552.90 280.97 L 551.48 277.93 L 550.88 276.72 L 550.30 275.57 L 550.04 275.09 L 549.56 274.20 L 549.36 273.86 L 548.99 273.26 L 548.85 273.09 L 548.61 272.82 M 873.16 343.22 L 873.41 343.27 L 873.93 343.70 L 874.89 344.85 L 875.27 345.36 L 876.25 346.79 L 876.76 347.56 L 877.96 349.44 L 878.59 350.43 L 879.97 352.70 L 880.68 353.88 L 882.21 356.46 L 883.77 359.10 L 887.14 365.00 L 888.85 368.01 L 892.27 374.20 L 893.96 377.27 L 897.11 383.15 L 897.86 384.58 L 899.27 387.26 L 899.95 388.57 L 901.17 390.98 L 901.75 392.14 L 902.75 394.19 L 903.22 395.16 L 903.96 396.78 L 904.29 397.53 L 904.73 398.65 L 905.00 399.68 L 905.00 399.75 L 904.73 400.00 L 904.55 400.14 L 903.95 400.53 L 903.62 400.74 L 902.74 401.25 L 902.27 401.52 L 901.16 402.13 L 899.99 402.77 L 897.13 404.24 L 895.63 405.00 L 892.38 406.61 L 890.73 407.41 L 887.43 408.98 L 885.80 409.74 L 882.80 411.10 L 881.36 411.73 L 878.99 412.72 L 878.46 412.93 L 877.56 413.26 L 876.54 413.58 L 876.00 413.71 L 875.12 413.58 L 874.90 413.49 L 874.45 413.14 L 874.22 412.93 L 873.71 412.29 L 873.44 411.92 L 872.83 410.92 L 872.50 410.37 L 871.74 408.95 L 871.34 408.19 L 870.38 406.29 L 869.88 405.27 L 868.68 402.83 L 868.14 401.71 L 866.84 399.17 L 866.16 397.85 L 864.61 394.97 L 863.82 393.49 L 862.07 390.33 L 861.18 388.73 L 859.27 385.37 L 857.34 381.97 L 853.15 374.88 L 846.72 364.35 L 846.65 364.23 L 847.01 363.63 L 847.27 363.28 L 848.26 362.26 L 848.83 361.70 L 850.39 360.29 L 851.23 359.54 L 853.31 357.80 L 854.41 356.89 L 856.94 354.86 L 858.26 353.82 L 861.19 351.55 L 862.70 350.39 L 865.98 347.92 L 871.23 344.06 L 871.67 343.74 L 872.34 343.36 L 872.64 343.21 M 489.53 247.57 L 489.67 248.32 L 489.20 249.46 L 488.34 251.54 L 487.92 252.54 L 487.16 254.36 L 486.43 256.11 L 485.22 258.91 L 484.65 260.21 L 483.71 262.21 L 483.26 263.12 L 482.48 264.46 L 482.11 265.06 L 481.41 265.89 L 481.07 266.26 L 480.37 266.72 L 477.80 267.42 L 477.36 267.49 L 476.26 267.72 L 475.67 267.85 L 474.32 268.19 L 472.91 268.56 L 469.44 269.58 L 467.62 270.13 L 463.51 271.46 L 461.39 272.16 L 456.88 273.71 L 452.31 275.31 L 442.96 278.83 L 440.68 279.71 L 436.37 281.44 L 430.50 283.94 L 426.95 285.51 L 419.95 288.84 L 416.47 290.54 L 409.62 294.12 L 406.20 295.95 L 399.50 299.77 L 396.16 301.72 L 389.60 305.78 L 386.35 307.84 L 379.96 312.14 L 376.78 314.32 L 370.56 318.84 L 367.47 321.12 L 361.42 325.86 L 358.43 328.26 L 352.57 333.21 L 349.66 335.71 L 343.99 340.86 L 341.18 343.46 L 335.72 348.82 L 333.01 351.52 L 327.75 357.06 L 325.15 359.86 L 320.10 365.59 L 317.61 368.47 L 312.79 374.38 L 310.40 377.36 L 305.81 383.44 L 303.54 386.50 L 299.19 392.75 L 292.93 402.31 L 292.19 403.50 L 290.74 405.67 L 290.04 406.70 L 288.80 408.42 L 288.22 409.21 L 287.32 410.28 L 286.50 410.97 L 286.36 410.97 L 285.61 410.66 L 285.17 410.46 L 283.94 409.80 L 283.27 409.44 L 281.71 408.53 L 280.90 408.05 L 279.18 406.97 L 272.85 402.96 L 276.58 396.23 L 277.89 393.88 L 280.75 389.12 L 282.21 386.73 L 285.40 381.90 L 287.03 379.47 L 290.55 374.57 L 292.34 372.11 L 296.19 367.13 L 298.15 364.63 L 302.33 359.57 L 304.45 357.03 L 308.96 351.90 L 311.25 349.33 L 316.09 344.12 L 323.71 336.22 L 326.38 333.53 L 331.43 328.58 L 333.91 326.18 L 338.67 321.74 L 341.03 319.57 L 345.64 315.53 L 347.95 313.55 L 352.55 309.80 L 354.87 307.96 L 359.61 304.39 L 362.00 302.62 L 367.00 299.12 L 369.55 297.37 L 374.95 293.84 L 383.64 288.39 L 387.49 286.03 L 395.29 281.60 L 399.20 279.43 L 407.17 275.36 L 411.18 273.37 L 419.38 269.64 L 423.51 267.81 L 431.99 264.40 L 436.28 262.72 L 445.11 259.60 L 449.58 258.07 L 458.82 255.22 L 463.49 253.82 L 473.19 251.21 L 488.33 247.56 L 488.89 247.43 M 737.47 123.67 L 738.05 123.78 L 738.70 123.92 L 740.64 124.53 L 741.70 124.88 L 744.28 125.84 L 748.58 127.58 L 750.18 128.26 L 754.03 129.96 L 756.03 130.85 L 760.44 132.86 L 764.92 134.91 L 774.08 139.23 L 776.27 140.28 L 780.26 142.21 L 781.21 142.67 L 782.97 143.53 L 783.81 143.95 L 785.32 144.71 L 786.05 145.08 L 787.27 145.71 L 787.85 146.01 L 788.74 146.50 L 789.15 146.72 L 789.68 147.04 L 790.00 147.31 L 790.00 147.34 L 789.77 147.88 L 789.61 148.22 L 789.09 149.33 L 788.80 149.95 L 788.03 151.57 L 787.62 152.43 L 786.62 154.49 L 786.10 155.57 L 784.92 158.01 L 784.31 159.27 L 782.97 162.02 L 778.51 171.13 L 776.93 174.34 L 774.05 180.30 L 773.36 181.72 L 772.09 184.37 L 771.48 185.65 L 770.39 187.97 L 769.87 189.08 L 768.98 191.00 L 768.57 191.90 L 767.92 193.36 L 767.63 194.02 L 767.25 194.94 L 767.01 195.64 L 767.01 195.96 L 767.42 196.61 L 768.43 197.34 L 768.53 197.37 L 769.02 197.65 L 769.32 197.81 L 770.16 198.32 L 770.62 198.61 L 771.77 199.32 L 772.38 199.71 L 773.80 200.60 L 775.27 201.54 L 778.82 203.84 L 784.68 207.69 L 786.72 209.03 L 790.53 211.55 L 792.36 212.76 L 795.50 214.83 L 796.22 215.31 L 797.49 216.15 L 798.08 216.54 L 799.06 217.19 L 799.51 217.48 L 800.15 217.90 L 800.69 218.26 L 800.84 218.36 L 801.18 218.40 L 801.37 218.37 L 801.92 218.03 L 802.24 217.80 L 803.18 216.88 L 803.72 216.33 L 805.22 214.64 L 805.64 214.15 L 806.61 213.01 L 807.12 212.41 L 808.29 211.01 L 808.90 210.27 L 810.29 208.58 L 811.01 207.70 L 812.64 205.70 L 813.49 204.66 L 815.39 202.32 L 816.37 201.11 L 818.55 198.42 L 819.67 197.02 L 822.16 193.94 L 826.25 188.86 L 827.45 187.37 L 829.73 184.64 L 830.84 183.35 L 832.75 181.19 L 833.20 180.70 L 833.98 179.86 L 834.35 179.47 L 834.98 178.86 L 835.26 178.58 L 835.69 178.22 L 836.09 178.00 L 836.16 178.00 L 836.72 178.36 L 837.07 178.60 L 838.14 179.39 L 838.73 179.83 L 840.22 180.99 L 841.02 181.62 L 842.87 183.09 L 843.83 183.86 L 845.97 185.58 L 847.06 186.46 L 849.42 188.38 L 851.81 190.33 L 856.92 194.55 L 859.49 196.68 L 864.53 200.89 L 865.76 201.93 L 868.11 203.91 L 869.25 204.88 L 871.38 206.70 L 872.41 207.58 L 874.25 209.17 L 875.13 209.93 L 876.61 211.25 L 877.30 211.86 L 878.35 212.83 L 879.36 213.83 L 879.62 214.11 L 880.06 214.54 L 880.25 214.75 L 880.36 215.29 L 880.36 215.61 L 879.88 216.60 L 879.71 216.90 L 879.22 217.62 L 878.95 218.02 L 878.22 218.97 L 877.82 219.48 L 876.82 220.71 L 876.28 221.37 L 874.98 222.91 L 874.29 223.72 L 872.65 225.62 L 871.79 226.62 L 869.78 228.92 L 868.73 230.12 L 866.32 232.86 L 865.06 234.29 L 862.22 237.51 L 860.74 239.18 L 857.43 242.93 L 851.90 249.18 L 851.09 250.10 L 849.61 251.83 L 848.90 252.67 L 847.73 254.12 L 847.20 254.79 L 846.47 255.79 L 846.00 256.61 L 846.00 256.66 L 846.16 256.93 L 846.26 257.08 L 846.61 257.54 L 847.01 258.04 L 848.29 259.51 L 848.99 260.31 L 850.76 262.24 L 853.78 265.43 L 854.85 266.54 L 857.33 269.15 L 858.59 270.49 L 861.23 273.30 L 862.53 274.70 L 865.01 277.38 L 868.20 280.88 L 874.85 288.25 L 884.57 280.88 L 886.41 279.49 L 889.79 276.92 L 891.44 275.67 L 894.46 273.38 L 895.93 272.27 L 898.62 270.24 L 899.92 269.26 L 902.28 267.48 L 903.42 266.62 L 905.49 265.07 L 906.48 264.33 L 908.26 263.00 L 909.12 262.36 L 910.65 261.23 L 911.38 260.69 L 912.66 259.76 L 913.28 259.31 L 914.34 258.55 L 914.85 258.18 L 915.72 257.58 L 916.54 257.01 L 917.67 256.29 L 918.17 255.98 L 918.77 255.71 L 919.25 255.66 L 919.39 255.74 L 920.02 256.43 L 920.39 256.85 L 921.44 258.16 L 922.01 258.87 L 923.41 260.69 L 924.15 261.66 L 925.85 263.91 L 926.72 265.08 L 928.63 267.67 L 929.61 268.99 L 931.68 271.83 L 933.78 274.70 L 938.16 280.80 L 940.35 283.85 L 944.51 289.75 L 945.51 291.17 L 947.38 293.86 L 948.29 295.17 L 949.93 297.56 L 950.71 298.71 L 952.05 300.70 L 952.67 301.64 L 953.64 303.15 L 954.07 303.83 L 954.61 304.76 L 954.85 305.41 L 954.81 305.45 L 954.20 305.86 L 953.83 306.11 L 952.69 306.88 L 952.07 307.30 L 950.55 308.32 L 948.00 310.03 L 947.50 310.37 L 946.27 311.20 L 945.62 311.63 L 944.14 312.65 L 942.60 313.70 L 938.94 316.21 L 937.05 317.52 L 932.97 320.34 L 930.90 321.77 L 926.75 324.66 L 924.71 326.09 L 920.86 328.78 L 919.01 330.07 L 915.84 332.31 L 915.11 332.82 L 913.83 333.73 L 913.23 334.16 L 912.25 334.87 L 911.80 335.19 L 911.16 335.66 L 910.63 336.07 L 910.51 336.18 L 910.45 336.60 L 910.45 336.84 L 910.62 337.47 L 911.82 339.75 L 912.10 340.14 L 912.83 341.27 L 913.23 341.90 L 914.18 343.46 L 914.67 344.28 L 915.79 346.19 L 916.37 347.19 L 917.63 349.38 L 918.91 351.64 L 921.74 356.71 L 923.17 359.30 L 926.07 364.65 L 927.51 367.31 L 930.20 372.39 L 930.85 373.62 L 932.05 375.93 L 932.64 377.06 L 933.69 379.12 L 934.19 380.12 L 935.06 381.86 L 935.46 382.69 L 936.10 384.05 L 936.39 384.68 L 936.77 385.58 L 937.00 386.37 L 937.00 386.48 L 936.49 386.80 L 935.25 387.27 L 935.13 387.31 L 934.70 387.47 L 934.45 387.56 L 933.80 387.83 L 933.09 388.13 L 931.13 388.98 L 930.08 389.45 L 927.63 390.56 L 923.68 392.39 L 913.87 397.00 L 910.04 388.71 L 909.61 387.79 L 908.60 385.72 L 908.08 384.66 L 906.88 382.34 L 905.64 379.96 L 902.71 374.61 L 901.18 371.86 L 897.81 366.01 L 896.09 363.05 L 892.49 357.03 L 890.67 354.02 L 887.03 348.15 L 885.22 345.26 L 881.74 339.86 L 880.03 337.25 L 876.90 332.65 L 876.14 331.56 L 874.74 329.60 L 872.80 327.00 L 868.65 321.61 L 860.34 311.35 L 856.18 306.31 L 847.81 296.74 L 843.62 292.03 L 835.14 283.07 L 830.89 278.67 L 822.25 270.29 L 817.91 266.17 L 809.07 258.32 L 804.62 254.45 L 795.52 247.08 L 790.93 243.45 L 781.52 236.51 L 767.00 226.54 L 765.45 225.52 L 761.90 223.28 L 760.07 222.14 L 756.12 219.75 L 752.11 217.33 L 743.73 212.51 L 741.67 211.34 L 737.72 209.14 L 735.78 208.07 L 732.22 206.17 L 730.51 205.27 L 727.55 203.77 L 723.99 202.10 L 723.23 201.78 L 721.41 200.96 L 720.46 200.54 L 718.43 199.60 L 717.42 199.12 L 715.44 198.18 L 712.78 196.88 L 707.07 194.00 L 710.41 186.25 L 710.87 185.19 L 711.95 182.69 L 712.50 181.41 L 713.67 178.72 L 714.25 177.38 L 715.36 174.83 L 716.81 171.50 L 717.45 170.05 L 718.89 166.71 L 719.63 164.99 L 721.22 161.25 L 722.83 157.45 L 726.16 149.50 L 726.97 147.54 L 728.51 143.80 L 729.27 141.97 L 730.63 138.62 L 731.29 137.01 L 732.39 134.25 L 733.66 131.00 L 734.00 130.11 L 734.68 128.41 L 735.02 127.60 L 735.63 126.18 L 735.92 125.52 L 736.40 124.54 L 736.90 123.72 L 736.95 123.67 L 737.27 123.66 M 706.34 203.19 L 706.74 203.31 L 707.84 203.73 L 708.44 203.96 L 709.89 204.58 L 710.66 204.92 L 712.42 205.72 L 713.33 206.14 L 715.35 207.10 L 716.39 207.60 L 718.63 208.69 L 720.91 209.82 L 725.92 212.37 L 731.02 214.98 L 741.55 220.68 L 744.09 222.08 L 748.78 224.75 L 749.91 225.40 L 752.02 226.65 L 754.90 228.40 L 760.28 231.74 L 770.51 238.53 L 775.55 241.95 L 785.17 248.99 L 789.92 252.55 L 799.06 259.95 L 803.58 263.71 L 812.35 271.58 L 816.71 275.59 L 825.25 284.05 L 829.50 288.37 L 837.93 297.53 L 842.14 302.22 L 850.57 312.20 L 863.38 328.22 L 870.11 336.93 L 856.64 346.97 L 854.79 348.35 L 851.37 350.86 L 849.74 352.06 L 846.98 354.05 L 846.35 354.51 L 845.26 355.28 L 844.74 355.64 L 843.92 356.21 L 843.55 356.46 L 843.04 356.80 L 842.66 357.00 L 842.63 357.00 L 842.39 356.78 L 842.25 356.64 L 841.82 356.16 L 841.58 355.89 L 840.97 355.17 L 840.65 354.79 L 839.89 353.87 L 839.10 352.91 L 837.16 350.48 L 836.15 349.21 L 833.93 346.35 L 831.02 342.58 L 825.24 335.40 L 822.35 331.86 L 816.58 325.10 L 813.69 321.77 L 807.88 315.40 L 804.97 312.26 L 799.08 306.22 L 796.12 303.24 L 790.11 297.50 L 787.08 294.66 L 780.90 289.17 L 777.78 286.45 L 771.38 281.16 L 761.50 273.40 L 759.24 271.69 L 754.48 268.25 L 752.07 266.53 L 747.07 263.11 L 742.03 259.70 L 731.53 253.16 L 726.27 249.96 L 715.81 244.11 L 713.23 242.71 L 708.18 240.11 L 700.85 236.55 L 690.30 231.64 L 694.20 223.07 L 695.27 220.71 L 697.73 215.33 L 698.32 214.03 L 699.40 211.66 L 700.73 208.75 L 701.23 207.67 L 702.08 206.03 L 702.50 205.29 L 703.25 204.26 L 703.61 203.81 L 704.33 203.29 L 705.45 203.00 L 705.63 203.00 M 606.41 246.14 L 607.08 246.23 L 608.76 246.54 L 609.66 246.71 L 611.74 247.16 L 612.82 247.40 L 615.22 247.97 L 617.69 248.57 L 623.28 250.05 L 626.13 250.82 L 632.04 252.51 L 634.98 253.36 L 640.62 255.09 L 641.99 255.52 L 644.57 256.35 L 645.83 256.76 L 648.14 257.54 L 649.25 257.93 L 651.22 258.64 L 652.15 258.98 L 653.70 259.60 L 654.41 259.90 L 655.47 260.40 L 656.41 261.01 L 656.68 261.28 L 657.60 261.71 L 659.06 262.00 L 659.34 262.00 L 660.21 262.17 L 660.69 262.29 L 661.92 262.67 L 662.58 262.89 L 664.13 263.47 L 664.95 263.79 L 666.78 264.54 L 667.73 264.94 L 669.81 265.86 L 670.88 266.33 L 673.17 267.38 L 675.50 268.47 L 680.62 270.96 L 683.23 272.25 L 688.68 275.05 L 691.41 276.48 L 696.88 279.43 L 699.59 280.91 L 704.77 283.86 L 711.87 288.12 L 713.23 288.97 L 716.33 290.99 L 717.93 292.05 L 721.32 294.36 L 724.75 296.72 L 731.51 301.58 L 733.12 302.75 L 736.02 304.91 L 737.40 305.95 L 739.67 307.73 L 740.18 308.15 L 741.06 308.87 L 741.47 309.21 L 742.11 309.78 L 742.40 310.04 L 742.77 310.44 L 743.00 310.80 L 743.00 310.94 L 742.56 311.69 L 742.28 312.12 L 741.40 313.33 L 740.92 313.98 L 739.75 315.46 L 739.14 316.23 L 737.82 317.82 L 737.16 318.61 L 735.85 320.12 L 735.21 320.84 L 734.06 322.09 L 733.52 322.67 L 732.68 323.48 L 731.94 324.00 L 731.72 324.00 L 731.17 323.69 L 730.90 323.49 L 730.46 322.93 L 730.38 322.80 L 730.01 322.40 L 729.80 322.18 L 729.19 321.64 L 728.53 321.06 L 726.59 319.52 L 725.53 318.69 L 722.92 316.77 L 721.56 315.77 L 718.49 313.60 L 715.34 311.38 L 708.44 306.76 L 706.73 305.64 L 703.39 303.50 L 698.70 300.61 L 695.39 298.63 L 688.01 294.54 L 684.27 292.50 L 676.70 288.64 L 674.84 287.71 L 671.23 285.96 L 669.45 285.11 L 666.09 283.58 L 664.46 282.84 L 661.46 281.57 L 657.50 280.01 L 654.45 278.90 L 649.00 276.95 L 646.36 276.02 L 641.58 274.37 L 639.25 273.57 L 634.93 272.16 L 632.81 271.47 L 628.74 270.23 L 624.69 269.02 L 616.46 266.85 L 614.32 266.30 L 609.75 265.20 L 602.25 263.47 L 601.60 263.32 L 600.74 262.77 L 600.56 262.59 L 600.32 262.10 L 600.21 261.83 L 600.10 261.11 L 600.06 260.72 L 600.09 259.73 L 600.11 259.19 L 600.26 257.86 L 600.36 257.15 L 600.63 255.43 L 601.17 252.37 L 601.31 251.65 L 601.54 250.44 L 601.66 249.87 L 601.87 248.94 L 602.09 248.07 L 602.55 247.02 L 602.80 246.59 L 603.44 246.18 L 604.79 246.00 L 605.19 246.00 M 636.32 179.87 L 636.71 179.89 L 637.76 180.05 L 638.34 180.16 L 639.85 180.48 L 640.67 180.67 L 642.72 181.17 L 646.50 182.11 L 647.01 182.23 L 648.36 182.61 L 649.09 182.81 L 650.81 183.31 L 651.72 183.58 L 653.76 184.20 L 654.82 184.52 L 657.12 185.23 L 659.47 185.97 L 664.67 187.63 L 667.32 188.47 L 672.73 190.24 L 675.42 191.12 L 680.55 192.84 L 683.04 193.67 L 687.39 195.17 L 688.40 195.52 L 690.20 196.16 L 691.06 196.47 L 692.49 197.00 L 693.16 197.24 L 694.17 197.64 L 695.13 198.07 L 695.53 198.28 L 696.03 198.66 L 696.22 198.86 L 696.32 199.40 L 696.32 199.71 L 696.01 200.64 L 695.09 202.74 L 694.97 203.00 L 694.64 203.71 L 694.46 204.10 L 694.03 205.05 L 693.57 206.04 L 692.42 208.55 L 691.82 209.87 L 690.50 212.78 L 688.47 217.25 L 687.65 219.05 L 686.24 221.96 L 685.56 223.30 L 684.43 225.30 L 683.89 226.19 L 683.03 227.28 L 682.05 227.90 L 681.94 227.89 L 681.48 227.78 L 681.21 227.71 L 680.44 227.48 L 679.60 227.22 L 677.19 226.42 L 675.89 225.97 L 672.79 224.87 L 671.18 224.29 L 667.70 223.00 L 665.94 222.34 L 661.72 220.88 L 659.55 220.14 L 654.93 218.66 L 652.61 217.93 L 648.14 216.59 L 642.20 214.94 L 640.45 214.49 L 637.19 213.61 L 635.63 213.17 L 632.95 212.39 L 631.71 212.01 L 629.91 211.41 L 629.53 211.28 L 628.99 211.06 L 628.54 210.83 L 628.46 210.76 L 628.38 210.41 L 628.35 210.20 L 628.36 209.56 L 628.37 209.21 L 628.47 208.31 L 628.52 207.83 L 628.70 206.67 L 628.90 205.45 L 629.54 202.31 L 630.86 196.63 L 631.31 194.80 L 632.15 191.30 L 632.56 189.61 L 633.26 186.65 L 633.58 185.27 L 634.06 183.18 L 634.16 182.73 L 634.30 182.05 L 634.43 181.39 L 634.52 180.85 L 634.86 180.19 L 634.99 180.06 L 635.39 179.91 L 635.63 179.86 M 645.45 150.22 L 646.27 150.36 L 648.51 150.81 L 649.72 151.07 L 652.58 151.71 L 654.07 152.05 L 657.35 152.84 L 660.68 153.65 L 667.68 155.46 L 669.39 155.92 L 672.63 156.81 L 677.00 158.08 L 677.34 158.18 L 678.27 158.47 L 678.76 158.63 L 679.96 159.02 L 681.21 159.44 L 684.33 160.49 L 685.96 161.05 L 689.57 162.29 L 691.41 162.92 L 695.14 164.22 L 696.99 164.87 L 700.49 166.10 L 702.18 166.70 L 705.08 167.74 L 705.75 167.99 L 706.91 168.41 L 707.46 168.62 L 708.35 168.95 L 708.76 169.11 L 709.33 169.33 L 709.78 169.54 L 709.80 169.55 L 709.74 169.81 L 709.69 169.97 L 709.50 170.49 L 709.28 171.08 L 708.54 172.88 L 708.12 173.87 L 707.10 176.24 L 706.56 177.47 L 705.40 180.10 L 704.81 181.42 L 703.63 184.00 L 703.06 185.25 L 702.02 187.46 L 701.53 188.50 L 700.76 190.04 L 700.60 190.37 L 700.34 190.84 L 700.07 191.25 L 699.89 191.46 L 699.32 191.54 L 699.02 191.52 L 698.45 191.17 L 698.31 191.05 L 697.77 190.72 L 697.46 190.55 L 696.60 190.13 L 696.14 189.91 L 695.01 189.42 L 694.41 189.16 L 693.03 188.60 L 691.60 188.02 L 688.10 186.71 L 686.26 186.03 L 682.16 184.57 L 680.05 183.84 L 675.57 182.33 L 673.31 181.58 L 668.71 180.10 L 666.41 179.37 L 661.92 178.01 L 655.57 176.18 L 653.16 175.52 L 648.71 174.27 L 646.58 173.66 L 643.00 172.60 L 642.18 172.35 L 640.76 171.92 L 640.10 171.71 L 639.03 171.36 L 638.55 171.20 L 637.89 170.96 L 637.40 170.73 L 637.36 170.69 L 637.32 170.40 L 637.31 170.23 L 637.33 169.69 L 637.37 169.11 L 637.62 167.33 L 637.77 166.36 L 638.20 164.00 L 639.04 160.05 L 639.30 158.88 L 639.75 156.94 L 639.97 156.03 L 640.35 154.55 L 640.53 153.86 L 640.86 152.78 L 641.02 152.28 L 641.34 151.53 L 641.65 150.86 L 642.34 150.26 L 643.72 150.00 L 644.04 150.00 Z" stroke-linecap="round"/>
</g>
		<g id="kqc7HrRBt-VTAluvdAFcT">
<path style="stroke: rgb(193,193,193); stroke-width: 0; stroke-dasharray: none; stroke-linecap: butt; stroke-dashoffset: 0; stroke-linejoin: miter; stroke-miterlimit: 4; fill: rgb(250,254,254); fill-rule: nonzero; opacity: 1;" transform="matrix(1.27159 0 0 1.271581 599.999881 599.999874) matrix(1 0 0 1 -51.5 9.255)  translate(-459.175, -540.025)" d="M 330.00 806.17 L 330.00 806.08 L 330.10 805.66 L 330.17 805.42 L 330.39 804.73 L 330.64 803.98 L 331.45 801.80 L 331.90 800.62 L 333.02 797.81 L 334.94 793.17 L 335.28 792.37 L 336.10 790.42 L 336.53 789.39 L 337.51 787.06 L 338.01 785.86 L 339.10 783.23 L 339.66 781.89 L 340.83 779.05 L 342.02 776.18 L 344.48 770.19 L 348.03 761.50 L 349.26 758.48 L 351.61 752.72 L 352.77 749.88 L 354.99 744.42 L 357.19 739.04 L 361.31 728.97 L 363.33 724.03 L 367.22 714.54 L 372.99 700.50 L 373.39 699.54 L 374.28 697.35 L 374.75 696.22 L 375.76 693.76 L 376.79 691.25 L 379.04 685.77 L 380.17 683.00 L 382.42 677.51 L 385.49 670.00 L 385.95 668.87 L 386.99 666.34 L 387.52 665.04 L 388.66 662.25 L 389.82 659.42 L 392.31 653.35 L 393.56 650.32 L 395.99 644.40 L 396.58 642.97 L 397.69 640.25 L 399.24 636.50 L 400.20 634.16 L 402.06 629.64 L 402.97 627.45 L 404.57 623.55 L 404.95 622.63 L 405.62 620.99 L 405.95 620.20 L 406.50 618.87 L 406.75 618.25 L 407.15 617.27 L 407.56 616.28 L 408.88 613.05 L 424.09 612.78 L 439.30 612.50 L 445.96 596.50 L 446.41 595.40 L 447.48 592.84 L 448.03 591.51 L 449.25 588.57 L 450.50 585.56 L 453.28 578.81 L 454.70 575.39 L 457.56 568.46 L 461.56 558.76 L 470.50 537.02 L 476.75 537.01 L 477.61 537.01 L 479.18 537.08 L 479.92 537.12 L 481.16 537.26 L 481.73 537.34 L 482.51 537.53 L 483.00 537.87 L 483.00 537.99 L 482.77 538.75 L 482.62 539.21 L 482.13 540.51 L 481.87 541.21 L 481.20 542.88 L 480.05 545.62 L 479.85 546.09 L 479.34 547.30 L 479.07 547.94 L 478.44 549.44 L 477.78 550.99 L 476.22 554.74 L 471.16 567.00 L 470.76 568.00 L 469.85 570.20 L 469.39 571.33 L 468.41 573.73 L 467.41 576.18 L 465.29 581.35 L 464.23 583.94 L 462.19 588.92 L 461.69 590.12 L 460.77 592.39 L 459.49 595.50 L 459.10 596.46 L 458.19 598.67 L 457.72 599.81 L 456.69 602.32 L 455.64 604.88 L 453.31 610.53 L 452.14 613.38 L 449.78 619.10 L 446.51 627.00 L 446.01 628.20 L 444.89 630.92 L 444.30 632.33 L 443.04 635.37 L 441.76 638.48 L 438.97 645.23 L 437.56 648.63 L 434.79 655.35 L 434.11 656.99 L 432.82 660.13 L 431.01 664.50 L 429.88 667.25 L 427.73 672.36 L 427.21 673.59 L 426.24 675.88 L 425.76 676.99 L 424.89 678.99 L 424.47 679.96 L 423.73 681.62 L 423.38 682.41 L 422.80 683.69 L 422.53 684.27 L 422.13 685.09 L 421.76 685.75 L 421.58 685.97 L 420.49 686.32 L 420.15 686.40 L 419.26 686.54 L 418.79 686.60 L 417.61 686.71 L 416.98 686.76 L 415.50 686.84 L 414.71 686.88 L 412.90 686.93 L 411.95 686.95 L 409.78 686.98 L 406.12 687.00 L 391.49 687.00 L 388.82 693.75 L 388.64 694.21 L 388.14 695.46 L 387.87 696.14 L 387.22 697.75 L 386.88 698.60 L 386.10 700.52 L 385.70 701.51 L 384.83 703.66 L 383.93 705.86 L 381.97 710.67 L 378.97 718.00 L 377.98 720.41 L 375.77 725.82 L 374.64 728.57 L 372.35 734.18 L 371.23 736.94 L 369.14 742.07 L 368.64 743.29 L 367.73 745.53 L 366.53 748.50 L 364.74 752.92 L 361.43 761.07 L 359.82 765.03 L 356.89 772.21 L 356.19 773.95 L 354.84 777.23 L 354.18 778.84 L 352.94 781.86 L 352.33 783.34 L 351.19 786.11 L 350.63 787.46 L 349.60 789.96 L 349.09 791.18 L 348.16 793.41 L 347.71 794.49 L 346.89 796.45 L 346.49 797.39 L 345.78 799.07 L 345.43 799.87 L 344.83 801.27 L 344.55 801.93 L 344.06 803.03 L 343.83 803.55 L 343.46 804.36 L 343.29 804.73 L 343.04 805.24 L 342.80 805.66 L 342.63 805.88 L 341.86 806.26 L 341.42 806.43 L 340.23 806.72 L 338.97 806.98 L 335.89 807.20 L 335.13 807.23 L 333.69 807.21 L 333.00 807.19 L 331.81 807.05 L 331.26 806.97 L 330.49 806.71 L 330.18 806.56 M 464.17 490.59 L 463.30 489.37 L 461.93 487.22 L 461.64 486.74 L 461.25 486.00 L 461.00 485.33 L 461.00 485.19 L 461.27 484.30 L 461.36 484.02 L 461.62 483.28 L 461.76 482.88 L 462.12 481.90 L 462.32 481.38 L 462.79 480.14 L 463.04 479.48 L 463.63 477.96 L 463.94 477.17 L 464.66 475.36 L 465.03 474.42 L 465.87 472.31 L 466.31 471.22 L 467.28 468.79 L 467.79 467.53 L 468.90 464.76 L 469.48 463.34 L 470.74 460.23 L 471.39 458.62 L 472.80 455.15 L 473.52 453.36 L 475.10 449.51 L 475.90 447.53 L 477.63 443.29 L 478.52 441.11 L 480.43 436.46 L 483.48 429.00 L 485.36 424.39 L 489.22 414.97 L 490.18 412.63 L 492.04 408.08 L 492.96 405.82 L 494.72 401.52 L 495.59 399.41 L 497.19 395.50 L 497.97 393.60 L 499.36 390.19 L 500.02 388.56 L 501.16 385.80 L 502.50 382.50 L 502.87 381.61 L 503.73 379.48 L 504.19 378.37 L 505.21 375.87 L 506.26 373.30 L 508.66 367.44 L 509.88 364.45 L 512.41 358.29 L 516.01 349.50 L 517.14 346.75 L 519.61 340.71 L 520.86 337.66 L 523.36 331.56 L 524.58 328.57 L 526.81 323.13 L 527.33 321.84 L 528.28 319.52 L 529.51 316.50 L 530.30 314.58 L 531.78 310.94 L 532.51 309.16 L 533.89 305.79 L 534.57 304.15 L 535.85 301.05 L 536.48 299.54 L 537.65 296.70 L 538.23 295.32 L 539.31 292.75 L 539.83 291.49 L 540.82 289.17 L 541.77 286.91 L 543.41 283.14 L 544.18 281.37 L 545.45 278.54 L 546.04 277.24 L 546.97 275.33 L 547.39 274.48 L 547.99 273.44 L 548.55 272.82 L 548.61 272.82 L 548.85 273.09 L 548.99 273.26 L 549.36 273.86 L 549.56 274.20 L 550.04 275.09 L 550.30 275.57 L 550.88 276.72 L 551.48 277.93 L 552.90 280.97 L 555.19 286.15 L 555.65 287.23 L 556.74 289.78 L 557.31 291.12 L 558.58 294.13 L 559.24 295.68 L 560.67 299.06 L 561.40 300.79 L 562.95 304.47 L 564.52 308.20 L 567.88 316.20 L 569.57 320.23 L 572.96 328.35 L 574.64 332.36 L 577.80 339.94 L 578.56 341.78 L 580.00 345.23 L 580.70 346.91 L 581.98 350.01 L 582.60 351.50 L 583.70 354.16 L 584.23 355.43 L 585.10 357.57 L 585.51 358.56 L 586.14 360.10 L 586.75 361.65 L 588.35 365.79 L 581.51 374.99 L 580.50 376.34 L 578.92 378.57 L 578.18 379.59 L 577.01 381.08 L 576.45 381.72 L 575.52 382.35 L 575.07 382.54 L 574.21 382.20 L 573.99 382.05 L 573.54 381.54 L 573.31 381.25 L 572.82 380.46 L 572.57 380.03 L 572.01 378.94 L 571.73 378.35 L 571.09 376.95 L 570.77 376.21 L 570.03 374.47 L 569.65 373.57 L 568.78 371.49 L 568.34 370.41 L 567.33 367.98 L 565.64 363.91 L 565.19 362.85 L 564.21 360.52 L 563.71 359.32 L 562.64 356.78 L 561.55 354.20 L 559.26 348.77 L 558.12 346.06 L 555.91 340.85 L 555.38 339.59 L 554.38 337.23 L 553.01 334.00 L 552.17 332.01 L 550.54 328.15 L 549.75 326.28 L 548.36 322.95 L 548.04 322.17 L 547.46 320.77 L 547.18 320.10 L 546.71 318.96 L 546.50 318.43 L 546.16 317.60 L 545.83 316.75 L 545.55 315.99 L 544.90 314.81 L 544.75 314.56 L 544.46 314.22 L 544.11 314.00 L 544.06 314.00 L 543.85 314.29 L 543.73 314.48 L 543.38 315.12 L 543.19 315.49 L 542.72 316.44 L 542.47 316.96 L 541.90 318.19 L 541.30 319.48 L 539.88 322.72 L 537.56 328.25 L 536.31 331.27 L 534.03 336.81 L 532.91 339.55 L 530.71 344.88 L 529.60 347.56 L 527.28 353.16 L 526.09 356.04 L 523.46 362.38 L 522.78 364.04 L 521.31 367.57 L 520.56 369.38 L 518.95 373.26 L 518.12 375.25 L 516.34 379.54 L 515.42 381.75 L 513.44 386.51 L 512.43 388.96 L 510.22 394.25 L 509.09 396.97 L 506.65 402.85 L 505.39 405.87 L 502.67 412.40 L 498.26 423.00 L 496.62 426.95 L 493.40 434.70 L 491.80 438.53 L 488.74 445.90 L 487.24 449.52 L 484.41 456.33 L 483.03 459.65 L 480.50 465.74 L 479.29 468.67 L 477.14 473.84 L 476.64 475.07 L 475.70 477.33 L 475.25 478.42 L 474.44 480.39 L 474.05 481.34 L 473.36 483.00 L 473.04 483.78 L 472.49 485.11 L 472.24 485.73 L 471.84 486.70 L 471.42 487.74 L 471.02 488.73 L 470.24 490.55 L 469.86 491.41 L 469.19 492.85 L 468.87 493.51 L 468.38 494.41 L 467.92 494.99 L 467.84 494.99 L 467.44 494.64 L 467.21 494.42 L 466.58 493.70 L 466.24 493.30 L 465.45 492.30 L 465.04 491.77 Z" stroke-linecap="round"/>
</g>
</g>
</g>

  </svg>